<?xml version="1.0" encoding="utf-8"?>
<!-- Generator: Adobe Illustrator 25.2.1, SVG Export Plug-In . SVG Version: 6.00 Build 0)  -->
<svg version="1.1" id="Layer_1" xmlns="http://www.w3.org/2000/svg" xmlns:xlink="http://www.w3.org/1999/xlink" x="0px" y="0px"
	 viewBox="0 0 108.5 108.5" style="enable-background:new 0 0 108.5 108.5;" xml:space="preserve">
<style type="text/css">
	.st0{fill:#DFF941;}
	.st1{fill:#0C0C0C;}
</style>
<path class="st0" d="M54.2,108.5L54.2,108.5C24.3,108.5,0,84.2,0,54.2v0C0,24.3,24.3,0,54.2,0h0c30,0,54.2,24.3,54.2,54.2v0
	C108.5,84.2,84.2,108.5,54.2,108.5z"/>
<g>
	<path class="st1" d="M74.4,59.2c3.1,0,5.7-2.5,5.7-5.7c0-3.1-2.5-5.7-5.7-5.7c-3.1,0-5.7,2.5-5.7,5.7
		C68.7,56.7,71.2,59.2,74.4,59.2z"/>
	<path class="st1" d="M66,59.9l-9.3,5l0,0.3c0.1,0.4,0.1,0.8,0.1,1.2c0,2.1-0.9,4.2-2.4,5.7c-1.5,1.5-3.5,2.4-5.7,2.4h0
		c-2.1,0-4.2-0.9-5.7-2.4c-1.5-1.5-2.4-3.5-2.4-5.7c0-2.1,0.9-4.2,2.4-5.7c1.5-1.5,3.5-2.4,5.7-2.4h0c2.3,0,4.5,1,6,2.7l0,0l8.8-4.7
		L52.5,39.4l-0.2,0c-0.1,0-0.2,0-0.2,0c-2.3,0-4.2-1.9-4.2-4.1s1.9-4.1,4.2-4.1c2.3,0,4.2,1.9,4.2,4.1c0,0.8-0.2,1.6-0.7,2.2l0,0.1
		l6.7,10.2l0.2-0.2c3.7-3.1,5.8-7.6,5.8-12.3c0-4.3-1.7-8.4-4.7-11.4c-3-3-7.1-4.7-11.4-4.8c0,0,0,0,0,0c-4.3,0-8.3,1.7-11.4,4.7
		c-3,3-4.7,7.1-4.8,11.4s1.7,8.5,4.8,11.5c-7.9,3.3-13.1,11-13.1,19.6c0,11.7,9.5,21.2,21.2,21.2c0,0,0,0,0,0c6,0,11.8-2.6,15.8-7.1
		l2.9,4.4h15L66,59.9z"/>
</g>
</svg>
