<?xml version="1.0" encoding="utf-8"?>
<!-- Generator: Adobe Illustrator 24.3.0, SVG Export Plug-In . SVG Version: 6.00 Build 0)  -->
<svg version="1.1" id="Layer_1" xmlns="http://www.w3.org/2000/svg" xmlns:xlink="http://www.w3.org/1999/xlink" x="0px" y="0px"
	 viewBox="0 0 1713 730" style="enable-background:new 0 0 1713 730;" xml:space="preserve">
<style type="text/css">
	.st0{display:none;}
	.st1{display:inline;}
	.st2{fill:#CCF3FF;}
	.st3{fill:none;stroke:#CCF3FF;stroke-width:4.245;stroke-miterlimit:10;}
	.st4{fill:#0C0C0C;}
</style>
<g id="GUIDES" class="st0">
	<g class="st1">
		<g>
			<g>
				<circle class="st2" cx="393.4" cy="118.5" r="19.9"/>
			</g>
			<path class="st2" d="M360.7,209.5l10.2,15.2H422l-57.1-86.3l-32.2,17.4c0.5,2.2,0.8,4.5,0.8,6.8c0,15.4-12.5,27.8-27.8,27.8
				s-27.8-12.5-27.8-27.8c0-15.4,12.5-27.9,27.8-27.9c9.2,0,17.4,4.5,22.5,11.5l30.9-16.7l-40-60.4c-0.7,0.1-1.5,0.2-2.3,0.2
				c-7.5,0-13.5-6-13.5-13.5c0-7.5,6-13.5,13.5-13.5s13.5,6,13.5,13.5c0,3.2-1.1,6.2-3.1,8.6l23.4,35.4l3.3-2.2
				c11.5-10.2,18.8-25.1,18.8-41.7c0-30.9-25-55.9-55.9-55.9s-55.9,25-55.9,55.8c0,15.7,6.5,29.9,16.9,40
				c-26.1,10.9-44.5,36.7-44.5,66.8c0,39.9,32.5,72.3,72.3,72.3C327.7,235,347.4,225.1,360.7,209.5z"/>
		</g>
		<g>
			<g>
				<circle class="st2" cx="392.6" cy="613.4" r="19.9"/>
			</g>
			<path class="st2" d="M359.9,704.4l10.2,15.2h51.1L364,633.3l-32.2,17.4c0.5,2.2,0.8,4.5,0.8,6.8c0,15.4-12.5,27.8-27.8,27.8
				S277,673,277,657.6c0-15.4,12.5-27.8,27.8-27.8c9.2,0,17.4,4.5,22.5,11.5l30.9-16.7l-40-60.4c-0.7,0.1-1.5,0.2-2.3,0.2
				c-7.5,0-13.5-6-13.5-13.5c0-7.5,6-13.5,13.5-13.5s13.5,6,13.5,13.5c0,3.2-1.1,6.2-3.1,8.6l23.4,35.4l3.3-2.2
				c11.5-10.2,18.8-25.1,18.8-41.7c0-30.8-25-55.9-55.9-55.9s-55.9,25-55.9,55.9c0,15.7,6.5,29.9,16.9,40
				c-26.1,10.9-44.5,36.7-44.5,66.8c0,39.9,32.5,72.3,72.3,72.3C326.8,730,346.6,720,359.9,704.4z"/>
		</g>
		<g>
			<g>
				<circle class="st2" cx="118.5" cy="304.2" r="19.9"/>
			</g>
			<path class="st2" d="M209.5,336.9l15.2-10.2v-51.1l-86.3,57.1l17.4,32.2c2.2-0.5,4.5-0.8,6.8-0.8c15.4,0,27.8,12.5,27.8,27.8
				s-12.5,27.8-27.8,27.8c-15.4,0-27.9-12.5-27.9-27.8c0-9.2,4.5-17.4,11.5-22.5l-16.7-30.9l-60.4,40c0.1,0.7,0.2,1.5,0.2,2.3
				c0,7.5-6,13.5-13.5,13.5c-7.5,0-13.5-6-13.5-13.5s6-13.5,13.5-13.5c3.2,0,6.2,1.1,8.6,3.1L99.8,347l-2.2-3.3
				C87.4,332.2,72.5,325,55.9,325C25,325,0,350,0,380.9s25,55.9,55.8,55.9c15.7,0,29.9-6.5,40-16.9c10.9,26.1,36.7,44.5,66.8,44.5
				c39.9,0,72.3-32.5,72.3-72.3C235,369.9,225.1,350.2,209.5,336.9z"/>
		</g>
		<g>
			<g>
				<circle class="st2" cx="1594.5" cy="420.9" r="19.9"/>
			</g>
			<path class="st2" d="M1503.5,388.2l-15.2,10.2v51.1l86.3-57.1l-17.4-32.2c-2.2,0.5-4.5,0.8-6.8,0.8c-15.4,0-27.8-12.5-27.8-27.8
				s12.5-27.8,27.8-27.8c15.4,0,27.8,12.5,27.8,27.8c0,9.2-4.5,17.4-11.5,22.5l16.7,30.9l60.4-40c-0.1-0.7-0.2-1.5-0.2-2.3
				c0-7.5,6-13.5,13.5-13.5c7.4,0,13.5,6,13.5,13.5s-6,13.5-13.5,13.5c-3.2,0-6.2-1.1-8.6-3.1l-35.4,23.4l2.2,3.3
				c10.2,11.5,25.1,18.8,41.7,18.8c30.8,0,55.8-25,55.8-55.9s-25-55.9-55.8-55.9c-15.7,0-29.9,6.5-40,16.9
				c-10.9-26.1-36.7-44.5-66.8-44.5c-39.9,0-72.3,32.5-72.3,72.3C1478,355.2,1487.9,374.9,1503.5,388.2z"/>
		</g>
		<rect x="233.3" y="235" class="st3" width="1246.4" height="259.7"/>
	</g>
</g>
<g>
	<g>
		<path class="st4" d="M293.2,278L224,446.7h26.2l18.3-45.2h76.1l18.4,45.2h26.8L320.5,278H293.2z M334.9,377.5h-56.7l28.3-69.5
			L334.9,377.5z"/>
		<path class="st4" d="M548.9,328.3c-9,0-17.6,2-25.5,5.9c-6.4,3.2-11.8,7.9-15.9,14c-3.7-5.5-8.6-10-14.6-13.5
			c-7.6-4.3-16.6-6.5-26.6-6.5c-7.7,0-15.2,1.5-22.1,4.6c-4.4,1.9-8.3,4.5-11.7,7.8v-10.1h-23.5v116.1h23.7v-65.1
			c0-9.2,2.9-16.6,8.7-22.1c5.8-5.5,13.1-8.3,21.8-8.3c9.1,0,16.2,2.6,21.1,7.8c4.9,5.2,7.4,12.7,7.4,22.2v65.5h23.6v-65.1
			c0-9.2,2.9-16.6,8.7-22.1c5.8-5.5,13.1-8.3,21.8-8.3c9.1,0,16.2,2.6,21.1,7.8c5,5.2,7.5,12.7,7.5,22.2v65.5H598v-71.2
			c0-14.1-4.6-25.6-13.7-34.2C575.3,332.7,563.4,328.3,548.9,328.3z"/>
		<path class="st4" d="M684.8,328.3c-14.9,0-27.2,4.5-36.8,13.5v-11.3h-23.7v163H648v-58.1c9.6,8.9,21.9,13.5,36.8,13.5
			c16.4,0,30.3-5.8,41.3-17.3c11-11.4,16.7-25.9,16.7-43.1c0-17.2-5.6-31.6-16.7-43C715,334.1,701.1,328.3,684.8,328.3z
			 M718.7,388.6c0,10.7-3.4,19.8-10.1,27c-6.6,7.1-15.3,10.8-26,10.8c-10.4,0-19.1-3.6-25.8-10.7c-6.7-7.1-10.1-16.2-10.1-27.1
			c0-10.8,3.4-19.9,10.1-27c6.7-7.1,15.4-10.7,25.8-10.7c10.5,0,19.2,3.6,25.9,10.8C715.3,368.9,718.7,377.9,718.7,388.6z"/>
		<path class="st4" d="M817,328.3c-16.6,0-30.5,5.7-41.3,17c-10.8,11.3-16.3,25.8-16.3,43.3c0,17.7,5.5,32.3,16.4,43.4
			c10.9,11.1,25.1,16.8,42.2,16.8c18.8,0,34.7-6.1,47.3-18l2.1-2l-13.1-16.8l-2.5,2.3c-9.4,8.6-20.4,13-32.6,13
			c-9.5,0-17.7-2.9-24.2-8.6c-5.8-5-9.5-12-11-20.9h85l2.3-0.6l0.3-2.2c0.2-2,0.4-4.4,0.4-6.9c-0.1-17.4-5.3-31.8-15.5-42.9
			C846,334,832.8,328.3,817,328.3z M816.7,350.1c8.4,0,15.6,2.8,21.1,8.2c4.9,4.9,8.1,11.3,9.5,19.2h-63.1c1.7-7.7,5.1-14.1,10.1-19
			C800.2,352.9,807.7,350.1,816.7,350.1z"/>
		<path class="st4" d="M965.8,332.3c-5.8-2.7-13-4-21.5-4c-7.2,0-14,1.7-20,5c-3.4,1.9-6.6,4.2-9.4,7v-9.8h-23.5v116.1H915v-64.6
			c0-9.4,2.5-17.1,7.4-22.7c4.8-5.5,11.2-8.3,18.8-8.3c6.7,0,12.6,1.4,17.5,4l3.6,1.9l5.3-21.6l0-2.2L965.8,332.3z"/>
		<path class="st4" d="M995.5,274.4c-4.5,0-8.4,1.6-11.5,4.7c-3.1,3.1-4.6,7-4.6,11.5c0,4.5,1.6,8.4,4.6,11.5
			c3.1,3.1,6.9,4.6,11.5,4.6c4.5,0,8.4-1.6,11.5-4.6c3.1-3.1,4.7-6.9,4.7-11.5c0-4.5-1.6-8.4-4.8-11.5
			C1003.8,276,1000,274.4,995.5,274.4z"/>
		<rect x="983.7" y="330.6" class="st4" width="23.7" height="116.1"/>
		<path class="st4" d="M1113.4,418.7l-0.6,0.5c-6.5,4.7-13.6,7.2-21.2,7.2c-5.7,0-10.3-1.7-13.6-5.2c-3.3-3.5-5-9-5-16.4v-52.3h40.3
			l-13.2-22h-27.1v-34.9h-23.6v34.9h-24v22h24v52.6c0,14.3,3.6,25.3,10.7,32.6c7.1,7.4,17.3,11.1,30.2,11.1
			c12.8,0,24.4-3.9,34.5-11.5l2.3-1.7l-11.4-18.4L1113.4,418.7z"/>
		<polygon class="st4" points="1221.8,330.6 1186.3,392.7 1145.1,330.6 1117.8,330.6 1173.6,414.8 1128.7,493.5 1155.1,493.5 
			1248.1,330.6 		"/>
	</g>
	<path class="st4" d="M1450.2,373.9c11.1,0,20.1-9,20.1-20.1c0-11.1-9-20.1-20.1-20.1c-11.1,0-20.1,9-20.1,20.1
		C1430.1,364.8,1439.1,373.9,1450.2,373.9z"/>
	<path class="st4" d="M1420.6,376.3l-33,17.8l0.1,1c0.2,1.5,0.3,2.9,0.3,4.3c0,7.6-3,14.8-8.4,20.2c-5.4,5.4-12.6,8.4-20.2,8.4
		c0,0,0,0,0,0c-7.6,0-14.8-3-20.2-8.4c-5.4-5.4-8.4-12.6-8.4-20.2c0-7.6,3-14.8,8.4-20.2c5.4-5.4,12.6-8.3,20.2-8.3c0,0,0,0,0.1,0
		c8.1,0,15.9,3.5,21.3,9.7l0.1,0.1l31.3-16.8l-39.6-59.9l-0.8,0.1c-0.3,0-0.5,0-0.8,0c-8.1,0-14.7-6.6-14.7-14.7
		c0-8.1,6.6-14.7,14.7-14.7c8.1,0,14.7,6.6,14.7,14.7c0,2.8-0.8,5.6-2.4,8l-0.1,0.2l23.9,36.1l0.6-0.5c13-10.9,20.5-26.9,20.6-43.8
		c0-15.3-5.9-29.7-16.7-40.5c-10.8-10.9-25.2-16.8-40.5-16.9c0,0-0.1,0-0.1,0c-15.2,0-29.6,5.9-40.4,16.7
		c-10.9,10.8-16.8,25.2-16.9,40.5c0,15.3,6.1,30,17,40.8c-28,11.5-46.7,39.2-46.7,69.5c-0.1,41.5,33.6,75.3,75.2,75.4
		c0,0,0.1,0,0.1,0c21.5,0,41.9-9.2,56.2-25.3l10.4,15.6h53.3L1420.6,376.3z"/>
</g>
</svg>
