<?xml version="1.0" encoding="utf-8"?>
<!-- Generator: Adobe Illustrator 25.2.1, SVG Export Plug-In . SVG Version: 6.00 Build 0)  -->
<svg version="1.1" id="Layer_1" xmlns="http://www.w3.org/2000/svg" xmlns:xlink="http://www.w3.org/1999/xlink" x="0px" y="0px"
	 viewBox="0 0 108.5 108.5" style="enable-background:new 0 0 108.5 108.5;" xml:space="preserve">
<style type="text/css">
	.st0{fill:#0C0C0C;}
	.st1{fill:#DFF941;}
	.st2{fill:#FFFFFF;}
</style>
<path class="st0" d="M54.2,108.5L54.2,108.5C24.3,108.5,0,84.2,0,54.2v0C0,24.3,24.3,0,54.2,0h0c30,0,54.2,24.3,54.2,54.2v0
	C108.5,84.2,84.2,108.5,54.2,108.5z"/>
<g>
	<path class="st1" d="M74.3,48.9c-2.9,0-5.2,2.3-5.2,5.2s2.3,5.2,5.2,5.2c2.9,0,5.2-2.3,5.2-5.2C79.4,51.2,77.1,48.9,74.3,48.9z"/>
	<path class="st2" d="M66,60.7l-8.6,4.6c0.1,0.4,0.1,0.8,0.1,1.2c0,4.5-3.7,8.2-8.3,8.2S41,71.1,41,66.5c0-4.5,3.7-8.2,8.3-8.2
		c2.4,0,4.6,1.1,6.1,2.7l8-4.3L52.7,40.6c-0.1,0-0.2,0-0.2,0c-2.5,0-4.4-2-4.4-4.4s2-4.4,4.4-4.4c2.5,0,4.4,2,4.4,4.4
		c0,0.8-0.3,1.6-0.7,2.3l6.2,9.4c3.3-2.8,5.4-7,5.4-11.7c0-8.5-6.9-15.4-15.4-15.4c-8.5,0-15.4,6.9-15.4,15.4c0,4.5,1.9,8.6,5,11.4
		c-7.7,2.9-13.1,10.3-13.2,19c0,11.2,9.1,20.4,20.3,20.4c6.2,0,11.8-2.8,15.5-7.2l3,4.5h13.8L66,60.7z"/>
</g>
</svg>
