<svg width="1578" height="712" viewBox="0 0 1578 712" fill="none" xmlns="http://www.w3.org/2000/svg">
<path d="M1127.54 110.419L1099 163.307H1087.98L1101.04 139.81L1084.94 110.419H1096.34L1106.59 129.602L1116.53 110.419H1127.54Z" fill="#0C0C0C"/>
<path d="M1080.68 110.419V119.356H1067.16V132.992C1067.16 137.653 1069.63 139.348 1072.75 139.348C1075.14 139.348 1077.72 138.154 1079.76 136.921L1083.46 144.779C1080.18 147.013 1076.41 148.708 1071.09 148.708C1061.85 148.708 1057.11 143.469 1057.11 133.801V119.356H1049.91V110.419H1057.11V99.3254H1067.16V110.419H1080.68Z" fill="#0C0C0C"/>
<path d="M1043.05 110.419V147.745H1032.99V110.419H1043.05ZM1037.96 91.7371C1041.58 91.7371 1044.39 94.5875 1044.39 98.2084C1044.39 101.829 1041.58 104.603 1037.96 104.603C1034.34 104.603 1031.57 101.829 1031.57 98.2084C1031.57 94.5875 1034.34 91.7371 1037.96 91.7371Z" fill="#0C0C0C"/>
<path d="M1020.9 109.418C1023.06 109.418 1024.75 109.726 1026.14 110.227L1024.64 120.203C1022.98 119.471 1020.59 119.009 1018.55 119.009C1013.89 119.009 1010.69 121.86 1010.69 127.407V147.745H1000.64V110.419H1010.39V114.502C1012.74 110.997 1016.32 109.418 1020.9 109.418Z" fill="#0C0C0C"/>
<path d="M974.32 109.418C985.067 109.418 992.425 117.391 992.463 129.024C992.463 130.18 992.386 131.567 992.27 132.414H965.807C966.886 137.807 970.661 140.157 975.399 140.157C978.634 140.157 982.14 138.847 984.836 136.574L990.73 143.046C986.492 146.936 981.1 148.708 974.821 148.708C963.38 148.708 955.445 140.927 955.445 129.179C955.445 117.43 963.149 109.418 974.32 109.418ZM974.243 118.085C969.505 118.085 966.732 120.935 965.846 125.558H982.371C981.446 120.781 978.557 118.085 974.243 118.085Z" fill="#0C0C0C"/>
<path d="M931.463 109.418C941.786 109.418 949.567 117.854 949.567 129.063C949.567 140.272 941.786 148.708 931.501 148.708C926.494 148.708 922.95 146.744 920.523 143.855V163.153H910.508V110.419H920.33V114.541C922.757 111.498 926.34 109.418 931.463 109.418ZM929.614 118.778C923.913 118.778 920.022 123.169 920.022 129.063C920.022 134.957 923.913 139.348 929.614 139.348C935.546 139.348 939.244 134.764 939.244 129.063C939.244 123.362 935.546 118.778 929.614 118.778Z" fill="#0C0C0C"/>
<path d="M885.551 109.418C894.333 109.418 900.266 115.311 900.266 123.978V147.745H890.25V127.214C890.25 121.821 887.515 118.855 882.97 118.855C878.656 118.855 875.073 121.667 875.073 127.291V147.745H865.02V127.214C865.02 121.821 862.323 118.855 857.739 118.855C853.425 118.855 849.843 121.667 849.843 127.291V147.745H839.789V110.419H849.573V114.811C852.231 110.843 856.314 109.418 860.551 109.418C865.944 109.418 870.374 111.844 872.878 115.812C875.767 111.074 880.659 109.418 885.551 109.418Z" fill="#0C0C0C"/>
<path d="M812.684 93.8171L833.677 147.745H822.198L817.499 135.188H794.503L789.803 147.745H778.594L799.587 93.8171H812.684ZM806.02 104.449L798.2 125.288H813.801L806.02 104.449Z" fill="#0C0C0C"/>
<path fill-rule="evenodd" clip-rule="evenodd" d="M899.373 485.921V572.193L863.974 607.829L775.641 607.593V450.519H863.971L899.373 485.921ZM810.435 572.81H864.58V485.312H810.435V572.81Z" fill="#0C0C0C"/>
<path fill-rule="evenodd" clip-rule="evenodd" d="M1056.04 607.603H1021.25V563.133H967.103V607.603H932.309V485.921L967.711 450.519H1056.04V607.603ZM967.103 528.34H1021.25V485.312H967.103V528.34Z" fill="#0C0C0C"/>
<path fill-rule="evenodd" clip-rule="evenodd" d="M1209.45 485.312H1164.98V607.603H1130.19V485.312H1085.72V450.519H1209.45V485.312Z" fill="#0C0C0C"/>
<path fill-rule="evenodd" clip-rule="evenodd" d="M1359.39 607.603H1324.59V563.133H1270.45V607.603H1235.66V485.921L1271.06 450.519H1359.39V607.603ZM1270.45 528.34H1324.59V485.312H1270.45V528.34Z" fill="#0C0C0C"/>
<path d="M899.373 255.362V282.769H864.58V260.312H810.435V347.796L864.58 347.6V325.574H899.373V352.759L869.529 382.603H811.043L775.641 347.2V261.143L811.037 225.746L869.523 225.513L899.373 255.362Z" fill="#0C0C0C"/>
<path fill-rule="evenodd" clip-rule="evenodd" d="M971.551 286.664H1036.81V225.519H1071.61V382.603H1036.81V321.457H971.551V382.603H936.758V225.519H971.551V286.664ZM968.049 379.103H968.051V317.957H968.049V379.103ZM1068.11 379.103H1068.11V229.019H1068.11V379.103ZM968.049 290.163H968.051V229.019H968.049V290.163Z" fill="#0C0C0C"/>
<path fill-rule="evenodd" clip-rule="evenodd" d="M1143.96 347.81H1198.1V225.519H1232.9V358.317L1208.61 382.603H1133.45L1109.16 358.317V225.519H1143.96V347.81ZM1229.39 356.867L1207.16 379.103H1207.16L1229.4 356.868V229.019H1229.39V356.867ZM1140.46 351.309H1140.46V229.019H1140.46V351.309Z" fill="#0C0C0C"/>
<path fill-rule="evenodd" clip-rule="evenodd" d="M1394.01 255.362V282.769H1359.22V260.312H1305.07V347.796L1359.22 347.6V325.574H1394.01V352.759L1364.17 382.603H1305.68L1270.28 347.2V261.143L1305.67 225.746L1364.16 225.513L1394.01 255.362ZM1390.51 351.309L1362.72 379.103L1390.51 351.31V329.074L1390.51 351.309ZM1301.57 351.309L1301.57 351.308V256.812L1301.57 351.309Z" fill="#0C0C0C"/>
<path fill-rule="evenodd" clip-rule="evenodd" d="M1460.62 286.664H1509.21V225.519H1544V274.938L1521.77 297.172V299.831L1544 322.066V382.603H1509.21V321.457H1460.62V382.603H1425.83V225.519H1460.62V286.664Z" fill="#0C0C0C"/>
<path fill-rule="evenodd" clip-rule="evenodd" d="M1106.59 129.603L1116.53 110.419H1127.54L1099 163.308H1087.98L1101.04 139.81L1084.94 110.419H1096.34L1106.59 129.603ZM1102.14 139.813L1089.62 162.344H1098.43L1125.93 111.382H1117.11L1106.6 131.671L1095.77 111.382H1086.57L1102.14 139.813Z" fill="#0C0C0C"/>
<path fill-rule="evenodd" clip-rule="evenodd" d="M929.613 117.814C932.844 117.814 935.516 119.071 937.37 121.14C939.215 123.197 940.207 126.007 940.207 129.062C940.207 132.118 939.215 134.929 937.37 136.986C935.516 139.055 932.844 140.311 929.613 140.311C923.305 140.31 919.059 135.409 919.059 129.062C919.059 122.716 923.305 117.815 929.613 117.814ZM929.613 118.778C923.913 118.778 920.023 123.169 920.022 129.062L920.033 129.611C920.259 135.046 923.848 139.081 929.085 139.335L929.613 139.348C935.36 139.348 939.01 135.046 939.232 129.594L939.243 129.062C939.243 123.54 935.773 119.065 930.163 118.791L929.613 118.778Z" fill="#0C0C0C"/>
<path fill-rule="evenodd" clip-rule="evenodd" d="M931.944 109.424C942.027 109.682 949.567 118.028 949.567 129.062L949.562 129.586C949.324 140.534 941.625 148.708 931.501 148.708L931.036 148.702C926.273 148.584 922.873 146.653 920.522 143.854V163.153H910.508V110.419H920.33V114.541C922.757 111.498 926.34 109.418 931.463 109.418L931.944 109.424ZM931.463 110.381C926.642 110.381 923.333 112.32 921.083 115.142L919.367 117.293V111.382H911.471V162.19H919.56V141.211L921.261 143.235C923.507 145.909 926.782 147.745 931.501 147.745C941.18 147.745 948.604 139.817 948.604 129.062C948.603 118.31 941.182 110.381 931.463 110.381Z" fill="#0C0C0C"/>
<path fill-rule="evenodd" clip-rule="evenodd" d="M974.243 117.121C976.613 117.121 978.656 117.868 980.231 119.322C981.796 120.767 982.826 122.841 983.316 125.375L983.538 126.521H964.681L964.9 125.376C965.37 122.925 966.359 120.848 967.946 119.381C969.546 117.902 971.67 117.121 974.243 117.121ZM974.243 118.085C969.505 118.085 966.732 120.935 965.846 125.558H982.371C981.475 120.93 978.736 118.255 974.644 118.093L974.243 118.085Z" fill="#0C0C0C"/>
<path fill-rule="evenodd" clip-rule="evenodd" d="M974.821 109.424C985.295 109.668 992.426 117.573 992.464 129.024L992.449 129.923C992.427 130.687 992.378 131.466 992.312 132.072L992.271 132.414H965.808C966.852 137.638 970.428 140.007 974.958 140.149L975.399 140.156C978.635 140.156 982.141 138.847 984.837 136.574L990.73 143.046C986.493 146.936 981.1 148.708 974.821 148.708L974.287 148.702C963.312 148.467 955.69 140.987 955.451 129.727L955.445 129.179C955.445 117.43 963.15 109.418 974.32 109.418L974.821 109.424ZM974.32 110.381C968.974 110.381 964.515 112.293 961.39 115.559C958.262 118.827 956.409 123.518 956.409 129.179C956.409 134.83 958.313 139.457 961.524 142.668C964.736 145.88 969.324 147.745 974.821 147.745C980.552 147.745 985.444 146.226 989.355 142.967L984.729 137.887C981.984 139.941 978.589 141.12 975.399 141.12C972.875 141.12 970.527 140.493 968.65 139.076C966.764 137.652 965.442 135.494 964.863 132.603L964.633 131.451H991.401C991.461 130.714 991.5 129.819 991.5 129.027L991.493 128.504C991.369 123.124 989.605 118.655 986.7 115.513C983.707 112.275 979.444 110.381 974.32 110.381Z" fill="#0C0C0C"/>
<path fill-rule="evenodd" clip-rule="evenodd" d="M1067.16 110.419H1080.68V119.355H1067.16V132.992L1067.17 133.42C1067.31 137.617 1069.57 139.242 1072.46 139.343L1072.75 139.348C1075.14 139.348 1077.72 138.154 1079.76 136.921L1083.46 144.779L1082.84 145.191C1079.71 147.219 1076.08 148.708 1071.09 148.708L1070.66 148.704C1061.99 148.548 1057.41 143.645 1057.12 134.694L1057.11 133.801V119.355H1049.91V110.419H1057.11V99.3252H1067.16V110.419ZM1058.07 111.382H1050.87V118.393H1058.07V133.801C1058.07 138.491 1059.22 141.946 1061.34 144.225C1063.45 146.491 1066.65 147.745 1071.09 147.745C1075.81 147.745 1079.24 146.357 1082.23 144.435L1079.33 138.277C1077.4 139.343 1075.03 140.311 1072.75 140.311C1071.02 140.311 1069.35 139.84 1068.11 138.599C1066.86 137.356 1066.2 135.486 1066.2 132.992V118.393H1079.72V111.382H1066.2V100.288H1058.07V111.382Z" fill="#0C0C0C"/>
<path fill-rule="evenodd" clip-rule="evenodd" d="M815.189 126.251H796.811L806.022 101.701L815.189 126.251ZM798.201 125.288H813.802L806.021 104.448L798.201 125.288Z" fill="#0C0C0C"/>
<path fill-rule="evenodd" clip-rule="evenodd" d="M833.678 147.745H822.199L817.499 135.188H794.503L789.804 147.745H778.594L799.588 93.8174H812.685L833.678 147.745ZM780.002 146.782H789.135L793.835 134.225H818.167L822.867 146.782H832.27L812.026 94.7803H800.246L780.002 146.782Z" fill="#0C0C0C"/>
<path fill-rule="evenodd" clip-rule="evenodd" d="M885.961 109.422C894.518 109.603 900.266 115.447 900.266 123.979V147.745H890.25V127.214C890.25 121.989 887.684 119.042 883.391 118.863L882.97 118.855C878.656 118.856 875.073 121.667 875.073 127.291V147.745H865.02V127.214C865.02 121.99 862.489 119.042 858.164 118.863L857.739 118.855C853.425 118.856 849.843 121.667 849.843 127.291V147.745H839.789V110.419H849.573V114.811C852.231 110.843 856.315 109.418 860.552 109.418L861.055 109.425C866.219 109.571 870.452 111.968 872.878 115.812C875.767 111.074 880.659 109.418 885.551 109.418L885.961 109.422ZM885.551 110.381C880.865 110.381 876.356 111.958 873.7 116.313L872.892 117.639L872.063 116.326C869.751 112.662 865.643 110.381 860.552 110.381C856.535 110.381 852.803 111.72 850.373 115.347L848.61 117.979V111.382H840.752V146.782H848.88V127.291C848.88 124.267 849.848 121.894 851.499 120.276C853.143 118.665 855.374 117.892 857.739 117.892C860.248 117.892 862.355 118.712 863.821 120.376C865.272 122.022 865.983 124.368 865.983 127.214V146.782H874.11V127.291C874.11 124.267 875.079 121.894 876.729 120.276C878.374 118.665 880.605 117.892 882.97 117.892C885.461 117.892 887.567 118.713 889.036 120.374C890.491 122.019 891.214 124.365 891.214 127.214V146.782H899.303V123.979C899.303 119.871 897.901 116.487 895.524 114.132C893.147 111.776 889.722 110.381 885.551 110.381Z" fill="#0C0C0C"/>
<path fill-rule="evenodd" clip-rule="evenodd" d="M1021.69 109.432C1023.48 109.497 1024.93 109.788 1026.14 110.227L1024.64 120.203C1023.09 119.517 1020.89 119.068 1018.94 119.015L1018.55 119.009C1013.89 119.009 1010.69 121.86 1010.69 127.406V147.745H1000.64V110.419H1010.39V114.502C1012.74 110.997 1016.32 109.418 1020.9 109.418L1021.69 109.432ZM1020.9 110.381C1016.57 110.381 1013.32 111.857 1011.19 115.039L1009.42 117.669V111.382H1001.6V146.782H1009.73V127.406C1009.73 124.449 1010.59 122.083 1012.19 120.453C1013.79 118.823 1016.03 118.046 1018.55 118.046C1020.27 118.046 1022.23 118.354 1023.86 118.883L1025.07 110.896C1023.94 110.578 1022.58 110.381 1020.9 110.381Z" fill="#0C0C0C"/>
<path fill-rule="evenodd" clip-rule="evenodd" d="M1043.04 147.745H1032.99V110.419H1043.04V147.745ZM1033.95 146.782H1042.08V111.382H1033.95V146.782Z" fill="#0C0C0C"/>
<path fill-rule="evenodd" clip-rule="evenodd" d="M1038.3 91.7451C1041.75 91.9159 1044.39 94.7006 1044.39 98.208L1044.38 98.5449C1044.22 102 1041.47 104.603 1037.96 104.603L1037.62 104.595C1034.28 104.434 1031.73 101.888 1031.57 98.5449L1031.57 98.208C1031.57 94.5874 1034.34 91.7375 1037.96 91.7373L1038.3 91.7451ZM1037.96 92.7002C1034.89 92.7004 1032.53 95.1041 1032.53 98.208C1032.53 101.297 1034.87 103.639 1037.96 103.64C1041.06 103.64 1043.43 101.289 1043.43 98.208C1043.43 95.1116 1041.04 92.7002 1037.96 92.7002Z" fill="#0C0C0C"/>
<path d="M379.346 182.004V197.161H364.188V182.004H379.346ZM530.913 182.004V197.161H515.757V182.004H530.913ZM333.875 151.69H364.188V182.004H333.875V151.69ZM485.442 151.69H515.757V182.004H485.442V151.69Z" fill="#EDFF95"/>
<path d="M530.913 182.004H515.756L515.755 151.69H530.912L530.913 182.004Z" fill="#646900"/>
<path d="M379.345 182.003H364.188V151.69H379.345V182.003Z" fill="#646900"/>
<path d="M439.977 288.101H470.29V318.414H439.977V288.101Z" fill="white"/>
<path fill-rule="evenodd" clip-rule="evenodd" d="M470.286 515.453H485.442V530.609H500.599V560.922H485.442V591.237H470.286V606.393H455.129V621.549H439.973V636.707H364.188V621.549H349.032V606.393H333.875V560.922H349.032V545.766H379.346V530.609H394.502V515.453H409.659V500.296H470.286V515.453Z" fill="#ABF4F7"/>
<path d="M576.384 500.296H561.228V485.14H576.384V500.296Z" fill="#ABF4F7"/>
<path d="M591.54 485.14H576.384V469.982H591.54V485.14Z" fill="#ABF4F7"/>
<path fill-rule="evenodd" clip-rule="evenodd" d="M485.442 394.198L485.443 379.042H500.599V439.669H485.442V454.825H470.286V469.982H424.815V454.825H409.659V439.669H394.503V379.042H409.659V363.885H485.442V394.198Z" fill="#ABF4F7"/>
<path d="M606.697 454.825H591.54V363.885H606.697V454.825Z" fill="#ABF4F7"/>
<path d="M591.54 363.885H576.384V303.258H591.54V363.885Z" fill="#ABF4F7"/>
<path d="M439.973 318.415H424.815V288.1H439.973V318.415Z" fill="#ABF4F7"/>
<path d="M424.815 242.631H439.973V272.944H409.659V288.102H379.346V272.944H364.188V242.631H379.346V227.474H424.815V242.631Z" fill="#ABF4F7"/>
<path fill-rule="evenodd" clip-rule="evenodd" d="M515.757 242.631H530.913L530.914 272.944H515.757V257.788L515.755 288.102H485.442V272.944H455.129V242.631H470.286V227.474H515.757V242.631ZM500.599 257.788H515.757L515.755 257.787L500.599 257.788Z" fill="#ABF4F7"/>
<path d="M606.697 288.1H591.54V272.944H606.697V288.1Z" fill="#ABF4F7"/>
<path d="M637.01 257.788L606.697 257.787V242.631H637.01V257.788Z" fill="#ABF4F7"/>
<path d="M652.166 227.474H606.697V212.318H652.166V227.474Z" fill="#ABF4F7"/>
<path d="M621.853 197.16H606.697V182.004H621.853V197.16Z" fill="#ABF4F7"/>
<path d="M606.697 182.004H591.54V166.847H606.697V182.004Z" fill="#ABF4F7"/>
<path d="M561.226 75.9067H576.384V136.533H561.226V91.0627H546.07V75.9067H530.913V60.7493H561.226V75.9067Z" fill="#ABF4F7"/>
<path d="M121.678 606.395H106.522V636.708L76.2091 636.707V651.864H30.7383V636.708H45.8957V621.551H76.2091V606.394H91.3651V591.237H121.678V606.395Z" fill="#007383"/>
<path d="M561.225 545.767H546.069V560.924H530.912V621.551H546.069V636.707L515.754 636.708V621.549H485.441V606.394H500.598V576.08H515.754V545.767H530.912V530.611H546.069V515.453H561.225V545.767Z" fill="#007383"/>
<path fill-rule="evenodd" clip-rule="evenodd" d="M242.933 439.67H258.09V454.826H227.776V469.984H212.62V530.609H227.776V545.765H212.62L242.933 545.767V560.924H288.403V591.237H273.247V606.395H242.933V591.237H197.463V560.924H182.305V545.767H167.149V469.984H182.305L182.307 439.669H212.62V424.513H242.933V439.67Z" fill="#007383"/>
<path d="M136.836 591.237H121.678V576.08H136.836V591.237Z" fill="#007383"/>
<path d="M288.403 409.356H303.56V439.67H318.716V454.826H333.874V469.984H349.03V500.297H333.874V485.14H318.716V469.982H303.56V454.826H288.403V424.513H273.247V348.727H288.403V409.356Z" fill="#007383"/>
<path d="M394.501 469.984L364.188 469.982V454.826H394.501V469.984Z" fill="#007383"/>
<path d="M546.069 439.669H530.912V469.984H500.598V454.826H515.754V424.513H530.912V394.2H546.069V439.669Z" fill="#007383"/>
<path d="M364.187 439.669H379.344V454.825H364.187L364.188 454.826H349.03V424.513H364.187V439.669Z" fill="#007383"/>
<path d="M318.716 333.571H303.56V348.727H288.403V318.414H303.56V303.259H318.716V333.571Z" fill="#007383"/>
<path d="M227.777 272.945H182.307V257.787H212.62V242.631H227.777V272.945Z" fill="#007383"/>
<path d="M242.933 197.16H227.777V182.004H212.62V166.847H242.933V197.16Z" fill="#007383"/>
<path d="M258.091 166.847H242.933V151.691H258.091V166.847Z" fill="#007383"/>
<path d="M333.874 106.222H318.716V75.9068H333.874V106.222Z" fill="#007383"/>
<path d="M394.502 30.4374H485.441V45.5934H515.754L515.755 75.9068H500.598V91.0642H470.285V60.7508H439.971V75.9068H409.658V60.7508H379.344V45.5934H333.874V30.436H364.187V15.28H394.502V30.4374Z" fill="#007383"/>
<path d="M530.912 60.7508H515.755L515.754 45.5934H530.912V60.7508Z" fill="#007383"/>
<path d="M546.069 606.394H561.226V621.551H530.913V560.924H546.069V606.394Z" fill="#00A0B2"/>
<path fill-rule="evenodd" clip-rule="evenodd" d="M273.247 469.984H288.404V485.14H303.56V500.297H288.404V560.924H242.933V545.767H227.777V530.611H212.62V500.297H212.617V485.14H212.62V469.984H242.933V454.826H273.247V469.984ZM227.774 500.297H227.777V485.14H227.774V500.297Z" fill="#00A0B2"/>
<path d="M546.067 454.826H561.225V485.139H546.069L561.226 485.14V500.297L530.911 500.296V485.14H515.754V469.983H530.911V439.669H546.067V454.826Z" fill="#00A0B2"/>
<path d="M318.717 363.886H333.873V394.2H349.031V454.826H364.188V485.14H349.031V469.984H333.873V454.826H318.717V439.67H303.56V409.356H288.404V348.729H303.56V333.573H318.717V363.886Z" fill="#00A0B2"/>
<path d="M576.382 469.984H561.226L561.225 454.826H576.382V469.984Z" fill="#00A0B2"/>
<path d="M242.932 469.983H227.774V454.826H242.933L242.932 469.983Z" fill="#00A0B2"/>
<path d="M576.382 379.042H591.538V424.512H591.541V439.669H576.383V424.512L576.382 454.826L546.069 454.825L546.067 439.669L546.069 348.729H561.225V333.572H576.382V379.042Z" fill="#00A0B2"/>
<path d="M333.875 363.885H318.719V348.729H333.875V363.885Z" fill="#00A0B2"/>
<path d="M424.815 318.416H470.284V303.26H515.755V318.416H485.443V333.572H470.286L470.284 318.416V333.573H409.658V318.416H379.344V303.26H424.815V318.416Z" fill="#00A0B2"/>
<path d="M318.716 197.162H333.873V227.474L333.875 212.318H409.658V227.475H379.346V242.631H364.188V257.787H349.032V242.631L349.031 272.945H364.185V288.101L333.873 288.102V272.945H318.719V257.787H303.561L318.717 257.789V303.26H303.56V257.789H288.404V227.475H303.56V242.631L303.561 227.474L288.404 227.475V212.318H303.56L303.559 182.005H318.716V197.162Z" fill="#00A0B2"/>
<path d="M530.913 303.26H515.755V288.102H530.913V303.26Z" fill="#00A0B2"/>
<path d="M379.346 303.258H364.19V288.101H379.346V303.258Z" fill="#00A0B2"/>
<path fill-rule="evenodd" clip-rule="evenodd" d="M591.539 182.005H606.695V212.318H591.539V197.162H591.537V212.318H591.539V242.631H576.383L576.382 272.945H561.226V288.102H530.913V272.946L530.911 242.631H515.757V227.475H485.442V212.318H561.226V197.161H576.382V166.849H591.539V182.005ZM546.069 257.787L546.07 257.789V227.475L546.069 257.787Z" fill="#00A0B2"/>
<path fill-rule="evenodd" clip-rule="evenodd" d="M470.284 197.162H485.442V212.318H409.658V197.162H424.815V166.849H470.284V197.162Z" fill="#00A0B2"/>
<path d="M455.126 91.0644H455.128V121.378H485.44V106.22L530.913 106.222V136.535H333.873V121.378H364.188V106.222H394.5L394.502 106.22V91.0644H409.658V106.222H439.971L439.97 75.907H455.126V91.0644Z" fill="#00A0B2"/>
<path d="M394.5 106.222L379.343 106.22V91.063H394.5V106.222Z" fill="#00A0B2"/>
<path d="M500.598 45.5936H485.442V30.4376H394.502V15.2788H500.598V45.5936Z" fill="#00A0B2"/>
<path d="M515.757 45.5936H500.598L500.599 30.4362H515.757V45.5936Z" fill="#00A0B2"/>
<path d="M30.7394 651.864H15.582V636.708H30.7394V651.864Z" fill="#54D3DE"/>
<path d="M45.8954 636.708H30.7394V621.551H45.8954V636.708Z" fill="#54D3DE"/>
<path d="M76.2088 621.551H45.8954V606.395H76.2088V621.551Z" fill="#54D3DE"/>
<path d="M91.3662 591.237V606.395H76.2088L61.0542 606.393V591.236L91.3662 591.237Z" fill="#54D3DE"/>
<path d="M121.68 591.237H91.3662V576.08H121.68V591.237Z" fill="#54D3DE"/>
<path d="M318.717 515.452H333.873V530.609H349.031V545.765V560.924H333.873V606.393H349.031V621.549H364.187V636.707H439.971V621.549H455.128V606.393H470.284V591.236H485.442V560.923H500.598V545.766H515.755V576.08H500.598V606.393H485.442V621.551H470.284V636.707H455.128V651.863H439.971V667.02H424.815V682.177H333.873V667.02H318.717V651.863H288.404V636.707H303.56V545.766H288.404V500.296H318.717V515.452Z" fill="#54D3DE"/>
<path d="M197.464 651.864H182.306V636.707H197.464V651.864Z" fill="#54D3DE"/>
<path d="M182.306 636.707H167.149V621.549H182.306V636.707Z" fill="#54D3DE"/>
<path d="M167.149 621.549L151.993 621.551V591.237H167.149V621.549Z" fill="#54D3DE"/>
<path d="M561.226 606.393H546.069V545.766H561.226V606.393Z" fill="#54D3DE"/>
<path d="M136.836 560.924H151.993V591.237H136.836V576.08L121.68 576.08L121.678 454.825H136.836V560.924Z" fill="#54D3DE"/>
<path d="M561.226 515.453H546.069V500.296H561.226V515.453Z" fill="#54D3DE"/>
<path fill-rule="evenodd" clip-rule="evenodd" d="M606.695 272.944H591.539V303.258H576.382V333.571H561.225V348.729H546.069L546.067 394.198H530.911V424.512H515.755L515.754 454.825H500.598V469.982H485.442V485.138H455.128L470.284 485.14V500.296H409.658V485.14H394.5V454.825H379.343V439.669H364.187V424.512H349.029V394.198L349.031 348.729L349.029 348.727H333.873L318.716 348.729V272.944H333.873V288.1H364.187V303.258H379.344V318.415L409.658 318.414V333.571H485.442V318.414H515.755V303.258H530.911V288.1H561.225V272.944H576.381L576.382 242.631H591.538V212.318H606.695V272.944ZM455.127 363.885H409.658V379.041H394.5V439.669H409.658V454.825H424.814V469.982H470.284V454.825H485.442V439.669H500.598V379.042H485.44V363.885H455.127ZM515.754 379.041L515.755 379.042V363.885L515.754 379.041Z" fill="#54D3DE"/>
<path d="M576.382 485.14H561.225V469.982H576.382V485.14Z" fill="#54D3DE"/>
<path d="M591.539 469.982H576.382V439.669H591.539V469.982Z" fill="#54D3DE"/>
<path d="M151.993 454.825H136.836V424.512H151.993V454.825Z" fill="#54D3DE"/>
<path d="M167.149 424.513L151.993 424.512L151.992 394.199H167.149V424.513Z" fill="#54D3DE"/>
<path d="M182.306 394.199H167.149V363.886H182.306V394.199Z" fill="#54D3DE"/>
<path d="M349.029 394.198H333.873V348.727L349.031 348.729L349.029 394.198Z" fill="#54D3DE"/>
<path d="M591.539 379.042H576.382V363.885H591.539V379.042Z" fill="#54D3DE"/>
<path d="M197.464 363.886H182.306V348.729H197.464V363.886Z" fill="#54D3DE"/>
<path d="M212.62 348.729H197.464V333.573H212.62V348.729Z" fill="#54D3DE"/>
<path d="M227.777 333.573H212.62V318.415H227.777V333.573Z" fill="#54D3DE"/>
<path d="M258.089 303.259H242.933V318.415H227.777V303.258H242.932V288.102H258.089V303.259Z" fill="#54D3DE"/>
<path d="M273.247 288.102H258.089L258.091 272.944H273.247V288.102Z" fill="#54D3DE"/>
<path d="M258.091 257.787H227.777V242.631H258.091V257.787Z" fill="#54D3DE"/>
<path d="M258.089 227.475L212.62 227.474V212.318H258.089V227.475Z" fill="#54D3DE"/>
<path d="M273.247 197.16H258.091V182.004H273.247V197.16Z" fill="#54D3DE"/>
<path d="M288.404 182.004H273.247V151.689H288.404V182.004Z" fill="#54D3DE"/>
<path d="M303.56 151.691L288.404 151.689V121.377H303.56V151.691Z" fill="#54D3DE"/>
<path d="M546.067 121.376H561.225V136.533H530.911V106.22H515.755V91.0627H530.911V75.9067H546.069L546.067 121.376Z" fill="#54D3DE"/>
<path d="M318.717 121.376L303.56 121.377V75.9067H318.717V121.376Z" fill="#54D3DE"/>
<path d="M364.187 75.9067H394.5V91.0627H379.343V106.22H364.187V121.376H349.029V75.9067H318.717V60.7493H364.187V75.9067Z" fill="#54D3DE"/>
<path d="M288.401 667.02H288.404V651.864H318.715V682.178H227.775V667.02H212.617V651.864H288.401V667.02Z" fill="#0C0C0C"/>
<path d="M500.597 651.864H546.066V682.178H455.127V667.022H470.282L439.968 667.02V651.864H500.597Z" fill="#0C0C0C"/>
<path fill-rule="evenodd" clip-rule="evenodd" d="M379.343 469.983H394.5V485.14H409.655V515.453H394.499V530.609H379.343L379.342 530.611V545.767H349.028V530.609H333.871V500.296H349.028V485.14H364.184V469.983H379.343Z" fill="#0C0C0C"/>
<path d="M515.753 485.14H530.909V500.296H546.066V530.609H530.909V545.767H500.595V530.609H485.439V515.453H470.282V485.14H485.439V469.983H515.753V485.14Z" fill="#0C0C0C"/>
<path d="M470.282 242.631H455.129V272.945H485.442V288.102H409.658V272.945H439.971V242.631H424.812V227.475H470.282V242.631Z" fill="#0C0C0C"/>
<path fill-rule="evenodd" clip-rule="evenodd" d="M349.028 151.691H333.875V182.005H364.188V197.161H379.346V151.691H349.032V136.534H576.379V151.69H576.382V197.161H561.226V212.318H546.069H485.439V197.161H470.286V166.847H424.815V197.162H409.658L409.656 197.161V212.318H333.875V197.161H318.719V166.849H303.561V136.534H349.028V151.691ZM485.443 182.005H500.597V197.161H500.599V182.005H515.757V197.161H530.913V151.691H485.443V182.005Z" fill="#0C0C0C"/>
<path d="M591.541 166.849H576.384V136.534H591.541V166.849Z" fill="#0C0C0C"/>
<path d="M349.034 106.22H333.876V75.907H349.034V106.22Z" fill="#0C0C0C"/>
<path d="M561.227 106.22H546.071V91.063H561.227V106.22Z" fill="#0C0C0C"/>
<path d="M333.871 697.335H227.774V682.178H318.714V667.022H333.871V697.335Z" fill="#004B57"/>
<path d="M561.224 697.335H455.125V682.178H546.067V667.022H561.223L561.224 697.335Z" fill="#004B57"/>
<path d="M227.774 682.178H212.617V667.022H227.774V682.178Z" fill="#004B57"/>
<path d="M455.125 682.178H439.969V667.022H455.125V682.178Z" fill="#004B57"/>
<path d="M515.752 636.707H546.067V651.864H455.125V636.707H470.282V621.551H515.752V636.707Z" fill="#004B57"/>
<path d="M424.812 303.258H379.343V288.102H424.812V303.258Z" fill="#004B57"/>
<path d="M515.752 303.258H470.282V288.102H515.752V303.258Z" fill="#004B57"/>
<path d="M379.343 288.102H364.185V272.945H379.343V288.102Z" fill="#004B57"/>
<path d="M530.91 288.102H515.752V272.945H530.91V288.102Z" fill="#004B57"/>
<path d="M364.185 272.945H349.027V257.789H364.185V272.945Z" fill="#004B57"/>
<path d="M485.439 227.475H409.656V212.318H485.439V227.475Z" fill="#004B57"/>
<path d="M349.027 121.378H333.871V136.534H303.558V121.378H318.714V106.22H349.027V121.378Z" fill="#004B57"/>
<path d="M379.343 60.7511H409.656V75.9072H439.969V60.7511H470.282V91.0643H500.596V75.9072H515.752V60.7511H530.91V91.0643H515.752V106.22H485.438V121.378H455.125V75.9072H439.969V106.22H409.656V91.0643H394.499V75.9072H364.185V60.7511H318.714V45.593H379.343V60.7511Z" fill="#004B57"/>
<path d="M561.223 121.378H546.067V106.22H561.223V121.378Z" fill="#004B57"/>
<path d="M318.714 75.9072H303.558V60.7511H318.714V75.9072Z" fill="#004B57"/>
<path fill-rule="evenodd" clip-rule="evenodd" d="M182.303 651.864H167.149V667.021L121.68 667.022V651.864H121.677V667.022H121.68V682.178H30.7391V667.022H15.582V651.864H76.2065V636.707H106.521V606.393H121.677V591.238L151.99 591.236V560.924H136.834V454.827H151.99V424.513H167.147V394.2H182.303V363.886H197.46V348.729H212.617V333.573H227.774V318.416H242.932V303.258H258.088V288.102H273.245V272.945H258.088V288.102H242.932V303.258H227.774V318.416H212.617V303.258H197.46V272.945H227.774V257.789H258.088V242.631H227.774V227.474L258.088 227.475V212.318H242.932V166.849H258.088V136.534H273.245V106.22H288.401V75.9072H303.558V121.378H288.401V151.691H273.245V182.005H258.088V197.162H273.245V182.005H288.401V151.691H303.558V166.849H318.714V182.005H303.558V212.318H288.401V257.789H303.558V318.416H288.401V348.729H273.245V424.513H288.401V454.825L288.402 454.827H303.558V469.982H318.714V485.14H333.871V515.453H318.714V500.297H303.558V485.14H288.401V469.982H273.245V454.827H258.088V439.669H242.932V424.513H212.617V439.669H182.303V469.982H167.147V545.767H182.303V560.924H197.46V591.238H242.932V606.393H273.245V591.238H288.401V545.767H303.558V636.707H288.402V651.864H212.617V667.022H197.46V636.707H182.303V621.551H167.147V591.238H151.991L151.99 621.549L167.147 621.551V636.707H182.303V651.864ZM151.99 636.707V651.864H151.993V636.707H151.99Z" fill="#004B57"/>
</svg>
