<svg width="1578" height="712" viewBox="0 0 1578 712" fill="none" xmlns="http://www.w3.org/2000/svg">
<path d="M379.346 182.125V197.282H364.188V182.125H379.346ZM530.913 182.125V197.282H515.757V182.125H530.913ZM333.875 151.812H364.188V182.125H333.875V151.812ZM485.442 151.812H515.757V182.125H485.442V151.812Z" fill="#EDFF95"/>
<path d="M530.913 182.126H515.756L515.755 151.811H530.912L530.913 182.126Z" fill="#646900"/>
<path d="M379.345 182.124H364.188V151.811H379.345V182.124Z" fill="#646900"/>
<path d="M439.977 288.222H470.29V318.536H439.977V288.222Z" fill="white"/>
<path fill-rule="evenodd" clip-rule="evenodd" d="M470.286 515.574H485.442V530.73H500.599V561.044H485.442V591.358H470.286V606.514H455.129V621.67H439.973V636.828H364.188V621.67H349.032V606.514H333.875V561.044H349.032V545.888H379.346V530.73H394.502V515.574H409.659V500.417H470.286V515.574Z" fill="#ABF4F7"/>
<path d="M576.384 500.417H561.228V485.261H576.384V500.417Z" fill="#ABF4F7"/>
<path d="M591.54 485.261H576.384V470.103H591.54V485.261Z" fill="#ABF4F7"/>
<path fill-rule="evenodd" clip-rule="evenodd" d="M485.442 394.319L485.443 379.163H500.599V439.79H485.442V454.946H470.286V470.103H424.815V454.946H409.659V439.79H394.503V379.163H409.659V364.006H485.442V394.319Z" fill="#ABF4F7"/>
<path d="M606.697 454.946H591.54V364.006H606.697V454.946Z" fill="#ABF4F7"/>
<path d="M591.54 364.006H576.384V303.379H591.54V364.006Z" fill="#ABF4F7"/>
<path d="M439.973 318.536H424.815V288.222H439.973V318.536Z" fill="#ABF4F7"/>
<path d="M424.815 242.752H439.973V273.066H409.659V288.223H379.346V273.066H364.188V242.752H379.346V227.595H424.815V242.752Z" fill="#ABF4F7"/>
<path fill-rule="evenodd" clip-rule="evenodd" d="M515.757 242.752H530.913L530.914 273.066H515.757V257.91L515.755 288.223H485.442V273.066H455.129V242.752H470.286V227.595H515.757V242.752ZM500.599 257.91H515.757L515.755 257.908L500.599 257.91Z" fill="#ABF4F7"/>
<path d="M606.697 288.222H591.54V273.066H606.697V288.222Z" fill="#ABF4F7"/>
<path d="M637.01 257.91L606.697 257.908V242.752H637.01V257.91Z" fill="#ABF4F7"/>
<path d="M652.166 227.595H606.697V212.439H652.166V227.595Z" fill="#ABF4F7"/>
<path d="M621.853 197.281H606.697V182.125H621.853V197.281Z" fill="#ABF4F7"/>
<path d="M606.697 182.125H591.54V166.968H606.697V182.125Z" fill="#ABF4F7"/>
<path d="M561.226 76.0277H576.384V136.655H561.226V91.1838H546.07V76.0277H530.913V60.8704H561.226V76.0277Z" fill="#ABF4F7"/>
<path d="M121.678 606.516H106.522V636.829L76.2091 636.828V651.985H30.7383V636.829H45.8957V621.672H76.2091V606.515H91.3651V591.359H121.678V606.516Z" fill="#007383"/>
<path d="M561.225 545.888H546.069V561.045H530.912V621.672H546.069V636.828L515.754 636.829V621.671H485.441V606.515H500.598V576.201H515.754V545.888H530.912V530.732H546.069V515.574H561.225V545.888Z" fill="#007383"/>
<path fill-rule="evenodd" clip-rule="evenodd" d="M242.933 439.792H258.09V454.948H227.776V470.105H212.62V530.73H227.776V545.886H212.62L242.933 545.888V561.045H288.403V591.359H273.247V606.516H242.933V591.359H197.463V561.045H182.305V545.888H167.149V470.105H182.305L182.307 439.79H212.62V424.634H242.933V439.792Z" fill="#007383"/>
<path d="M136.836 591.359H121.678V576.201H136.836V591.359Z" fill="#007383"/>
<path d="M288.403 409.477H303.56V439.792H318.716V454.948H333.874V470.105H349.03V500.418H333.874V485.261H318.716V470.104H303.56V454.948H288.403V424.634H273.247V348.849H288.403V409.477Z" fill="#007383"/>
<path d="M394.501 470.105L364.188 470.104V454.948H394.501V470.105Z" fill="#007383"/>
<path d="M546.069 439.79H530.912V470.105H500.598V454.948H515.754V424.634H530.912V394.321H546.069V439.79Z" fill="#007383"/>
<path d="M364.187 439.79H379.344V454.946H364.187L364.188 454.948H349.03V424.634H364.187V439.79Z" fill="#007383"/>
<path d="M318.716 333.693H303.56V348.849H288.403V318.535H303.56V303.381H318.716V333.693Z" fill="#007383"/>
<path d="M227.777 273.066H182.307V257.908H212.62V242.752H227.777V273.066Z" fill="#007383"/>
<path d="M242.933 197.282H227.777V182.126H212.62V166.968H242.933V197.282Z" fill="#007383"/>
<path d="M258.091 166.968H242.933V151.812H258.091V166.968Z" fill="#007383"/>
<path d="M333.874 106.343H318.716V76.0279H333.874V106.343Z" fill="#007383"/>
<path d="M394.502 30.5585H485.441V45.7145H515.754L515.755 76.0279H500.598V91.1853H470.285V60.8719H439.971V76.0279H409.658V60.8719H379.344V45.7145H333.874V30.5571H364.187V15.4011H394.502V30.5585Z" fill="#007383"/>
<path d="M530.912 60.8719H515.755L515.754 45.7145H530.912V60.8719Z" fill="#007383"/>
<path d="M546.069 606.515H561.226V621.672H530.913V561.045H546.069V606.515Z" fill="#00A0B2"/>
<path fill-rule="evenodd" clip-rule="evenodd" d="M273.247 470.105H288.404V485.261H303.56V500.418H288.404V561.045H242.933V545.888H227.777V530.732H212.62V500.418H212.617V485.261H212.62V470.105H242.933V454.948H273.247V470.105ZM227.774 500.418H227.777V485.261H227.774V500.418Z" fill="#00A0B2"/>
<path d="M546.067 454.948H561.225V485.26H546.069L561.226 485.261V500.418L530.911 500.417V485.261H515.754V470.104H530.911V439.79H546.067V454.948Z" fill="#00A0B2"/>
<path d="M318.717 364.007H333.873V394.321H349.031V454.948H364.188V485.261H349.031V470.105H333.873V454.948H318.717V439.792H303.56V409.477H288.404V348.85H303.56V333.694H318.717V364.007Z" fill="#00A0B2"/>
<path d="M576.382 470.105H561.226L561.225 454.948H576.382V470.105Z" fill="#00A0B2"/>
<path d="M242.932 470.104H227.774V454.948H242.933L242.932 470.104Z" fill="#00A0B2"/>
<path d="M576.382 379.163H591.538V424.633H591.541V439.79H576.383V424.633L576.382 454.948L546.069 454.946L546.067 439.79L546.069 348.85H561.225V333.693H576.382V379.163Z" fill="#00A0B2"/>
<path d="M333.875 364.006H318.719V348.85H333.875V364.006Z" fill="#00A0B2"/>
<path d="M424.815 318.537H470.284V303.381H515.755V318.537H485.443V333.693H470.286L470.284 318.537V333.694H409.658V318.537H379.344V303.381H424.815V318.537Z" fill="#00A0B2"/>
<path d="M318.716 197.283H333.873V227.595L333.875 212.439H409.658V227.596H379.346V242.752H364.188V257.908H349.032V242.752L349.031 273.066H364.185V288.222L333.873 288.223V273.066H318.719V257.908H303.561L318.717 257.91V303.381H303.56V257.91H288.404V227.596H303.56V242.752L303.561 227.595L288.404 227.596V212.439H303.56L303.559 182.126H318.716V197.283Z" fill="#00A0B2"/>
<path d="M530.913 303.381H515.755V288.223H530.913V303.381Z" fill="#00A0B2"/>
<path d="M379.346 303.379H364.19V288.222H379.346V303.379Z" fill="#00A0B2"/>
<path fill-rule="evenodd" clip-rule="evenodd" d="M591.539 182.126H606.695V212.439H591.539V197.283H591.537V212.439H591.539V242.752H576.383L576.382 273.066H561.226V288.223H530.913V273.067L530.911 242.752H515.757V227.596H485.442V212.439H561.226V197.282H576.382V166.97H591.539V182.126ZM546.069 257.908L546.07 257.91V227.596L546.069 257.908Z" fill="#00A0B2"/>
<path fill-rule="evenodd" clip-rule="evenodd" d="M470.284 197.283H485.442V212.439H409.658V197.283H424.815V166.97H470.284V197.283Z" fill="#00A0B2"/>
<path d="M455.126 91.1854H455.128V121.499H485.44V106.341L530.913 106.343V136.656H333.873V121.499H364.188V106.343H394.5L394.502 106.341V91.1854H409.658V106.343H439.971L439.97 76.0281H455.126V91.1854Z" fill="#00A0B2"/>
<path d="M394.5 106.343L379.343 106.341V91.1841H394.5V106.343Z" fill="#00A0B2"/>
<path d="M500.598 45.7147H485.442V30.5586H394.502V15.3999H500.598V45.7147Z" fill="#00A0B2"/>
<path d="M515.757 45.7147H500.598L500.599 30.5573H515.757V45.7147Z" fill="#00A0B2"/>
<path d="M30.7394 651.985H15.582V636.829H30.7394V651.985Z" fill="#54D3DE"/>
<path d="M45.8954 636.829H30.7394V621.672H45.8954V636.829Z" fill="#54D3DE"/>
<path d="M76.2088 621.672H45.8954V606.516H76.2088V621.672Z" fill="#54D3DE"/>
<path d="M91.3662 591.359V606.516H76.2088L61.0542 606.515V591.357L91.3662 591.359Z" fill="#54D3DE"/>
<path d="M121.68 591.359H91.3662V576.201H121.68V591.359Z" fill="#54D3DE"/>
<path d="M318.717 515.573H333.873V530.73H349.031V545.886V561.045H333.873V606.514H349.031V621.67H364.187V636.828H439.971V621.67H455.128V606.514H470.284V591.357H485.442V561.044H500.598V545.888H515.755V576.201H500.598V606.514H485.442V621.672H470.284V636.828H455.128V651.984H439.971V667.141H424.815V682.299H333.873V667.141H318.717V651.984H288.404V636.828H303.56V545.888H288.404V500.417H318.717V515.573Z" fill="#54D3DE"/>
<path d="M197.464 651.985H182.306V636.828H197.464V651.985Z" fill="#54D3DE"/>
<path d="M182.306 636.828H167.149V621.67H182.306V636.828Z" fill="#54D3DE"/>
<path d="M167.149 621.67L151.993 621.672V591.358H167.149V621.67Z" fill="#54D3DE"/>
<path d="M561.226 606.514H546.069V545.888H561.226V606.514Z" fill="#54D3DE"/>
<path d="M136.836 561.045H151.993V591.358H136.836V576.201L121.68 576.201L121.678 454.946H136.836V561.045Z" fill="#54D3DE"/>
<path d="M561.226 515.574H546.069V500.417H561.226V515.574Z" fill="#54D3DE"/>
<path fill-rule="evenodd" clip-rule="evenodd" d="M606.695 273.066H591.539V303.379H576.382V333.692H561.225V348.85H546.069L546.067 394.319H530.911V424.633H515.755L515.754 454.946H500.598V470.103H485.442V485.259H455.128L470.284 485.261V500.417H409.658V485.261H394.5V454.946H379.343V439.79H364.187V424.633H349.029V394.319L349.031 348.85L349.029 348.848H333.873L318.716 348.85V273.066H333.873V288.222H364.187V303.379H379.344V318.536L409.658 318.535V333.692H485.442V318.535H515.755V303.379H530.911V288.222H561.225V273.066H576.381L576.382 242.752H591.538V212.439H606.695V273.066ZM455.127 364.006H409.658V379.162H394.5V439.79H409.658V454.946H424.814V470.103H470.284V454.946H485.442V439.79H500.598V379.163H485.44V364.006H455.127ZM515.754 379.162L515.755 379.163V364.006L515.754 379.162Z" fill="#54D3DE"/>
<path d="M576.382 485.261H561.225V470.103H576.382V485.261Z" fill="#54D3DE"/>
<path d="M591.539 470.103H576.382V439.79H591.539V470.103Z" fill="#54D3DE"/>
<path d="M151.993 454.946H136.836V424.633H151.993V454.946Z" fill="#54D3DE"/>
<path d="M167.149 424.634L151.993 424.633L151.992 394.321H167.149V424.634Z" fill="#54D3DE"/>
<path d="M182.306 394.321H167.149V364.007H182.306V394.321Z" fill="#54D3DE"/>
<path d="M349.029 394.319H333.873V348.848L349.031 348.85L349.029 394.319Z" fill="#54D3DE"/>
<path d="M591.539 379.163H576.382V364.006H591.539V379.163Z" fill="#54D3DE"/>
<path d="M197.464 364.007H182.306V348.85H197.464V364.007Z" fill="#54D3DE"/>
<path d="M212.62 348.85H197.464V333.694H212.62V348.85Z" fill="#54D3DE"/>
<path d="M227.777 333.694H212.62V318.536H227.777V333.694Z" fill="#54D3DE"/>
<path d="M258.089 303.38H242.933V318.536H227.777V303.379H242.932V288.223H258.089V303.38Z" fill="#54D3DE"/>
<path d="M273.247 288.223H258.089L258.091 273.066H273.247V288.223Z" fill="#54D3DE"/>
<path d="M258.091 257.908H227.777V242.752H258.091V257.908Z" fill="#54D3DE"/>
<path d="M258.089 227.596L212.62 227.595V212.439H258.089V227.596Z" fill="#54D3DE"/>
<path d="M273.247 197.281H258.091V182.125H273.247V197.281Z" fill="#54D3DE"/>
<path d="M288.404 182.125H273.247V151.811H288.404V182.125Z" fill="#54D3DE"/>
<path d="M303.56 151.812L288.404 151.811V121.499H303.56V151.812Z" fill="#54D3DE"/>
<path d="M546.067 121.497H561.225V136.655H530.911V106.341H515.755V91.1838H530.911V76.0277H546.069L546.067 121.497Z" fill="#54D3DE"/>
<path d="M318.717 121.497L303.56 121.499V76.0277H318.717V121.497Z" fill="#54D3DE"/>
<path d="M364.187 76.0277H394.5V91.1838H379.343V106.341H364.187V121.497H349.029V76.0277H318.717V60.8704H364.187V76.0277Z" fill="#54D3DE"/>
<path d="M288.401 667.142H288.404V651.986H318.715V682.299H227.775V667.142H212.617V651.986H288.401V667.142Z" fill="#0C0C0C"/>
<path d="M500.597 651.986H546.066V682.299H455.127V667.143H470.282L439.968 667.142V651.986H500.597Z" fill="#0C0C0C"/>
<path fill-rule="evenodd" clip-rule="evenodd" d="M379.343 470.104H394.5V485.261H409.655V515.574H394.499V530.731H379.343L379.342 530.732V545.888H349.028V530.731H333.871V500.417H349.028V485.261H364.184V470.104H379.343Z" fill="#0C0C0C"/>
<path d="M515.753 485.261H530.909V500.417H546.066V530.731H530.909V545.888H500.595V530.731H485.439V515.574H470.282V485.261H485.439V470.104H515.753V485.261Z" fill="#0C0C0C"/>
<path d="M470.282 242.752H455.129V273.066H485.442V288.223H409.658V273.066H439.971V242.752H424.812V227.596H470.282V242.752Z" fill="#0C0C0C"/>
<path fill-rule="evenodd" clip-rule="evenodd" d="M349.028 151.812H333.875V182.126H364.188V197.282H379.346V151.812H349.032V136.655H576.379V151.811H576.382V197.282H561.226V212.439H546.069H485.439V197.282H470.286V166.968H424.815V197.283H409.658L409.656 197.282V212.439H333.875V197.282H318.719V166.97H303.561V136.655H349.028V151.812ZM485.443 182.126H500.597V197.282H500.599V182.126H515.757V197.282H530.913V151.812H485.443V182.126Z" fill="#0C0C0C"/>
<path d="M591.541 166.97H576.384V136.655H591.541V166.97Z" fill="#0C0C0C"/>
<path d="M349.034 106.341H333.876V76.0281H349.034V106.341Z" fill="#0C0C0C"/>
<path d="M561.227 106.341H546.071V91.1841H561.227V106.341Z" fill="#0C0C0C"/>
<path d="M333.871 697.456H227.774V682.299H318.714V667.143H333.871V697.456Z" fill="#004B57"/>
<path d="M561.224 697.456H455.125V682.299H546.067V667.143H561.223L561.224 697.456Z" fill="#004B57"/>
<path d="M227.774 682.299H212.617V667.143H227.774V682.299Z" fill="#004B57"/>
<path d="M455.125 682.299H439.969V667.143H455.125V682.299Z" fill="#004B57"/>
<path d="M515.752 636.828H546.067V651.986H455.125V636.828H470.282V621.672H515.752V636.828Z" fill="#004B57"/>
<path d="M424.812 303.379H379.343V288.223H424.812V303.379Z" fill="#004B57"/>
<path d="M515.752 303.379H470.282V288.223H515.752V303.379Z" fill="#004B57"/>
<path d="M379.343 288.223H364.185V273.066H379.343V288.223Z" fill="#004B57"/>
<path d="M530.91 288.223H515.752V273.066H530.91V288.223Z" fill="#004B57"/>
<path d="M364.185 273.066H349.027V257.91H364.185V273.066Z" fill="#004B57"/>
<path d="M485.439 227.596H409.656V212.439H485.439V227.596Z" fill="#004B57"/>
<path d="M349.027 121.499H333.871V136.655H303.558V121.499H318.714V106.342H349.027V121.499Z" fill="#004B57"/>
<path d="M379.343 60.8722H409.656V76.0283H439.969V60.8722H470.282V91.1854H500.596V76.0283H515.752V60.8722H530.91V91.1854H515.752V106.342H485.438V121.499H455.125V76.0283H439.969V106.342H409.656V91.1854H394.499V76.0283H364.185V60.8722H318.714V45.7141H379.343V60.8722Z" fill="#004B57"/>
<path d="M561.223 121.499H546.067V106.342H561.223V121.499Z" fill="#004B57"/>
<path d="M318.714 76.0283H303.558V60.8722H318.714V76.0283Z" fill="#004B57"/>
<path fill-rule="evenodd" clip-rule="evenodd" d="M182.303 651.986H167.149V667.142L121.68 667.143V651.986H121.677V667.143H121.68V682.299H30.7391V667.143H15.582V651.986H76.2065V636.828H106.521V606.514H121.677V591.359L151.99 591.357V561.045H136.834V454.948H151.99V424.634H167.147V394.321H182.303V364.007H197.46V348.85H212.617V333.694H227.774V318.537H242.932V303.379H258.088V288.223H273.245V273.066H258.088V288.223H242.932V303.379H227.774V318.537H212.617V303.379H197.46V273.066H227.774V257.91H258.088V242.753H227.774V227.595L258.088 227.596V212.439H242.932V166.97H258.088V136.655H273.245V106.342H288.401V76.0283H303.558V121.499H288.401V151.812H273.245V182.126H258.088V197.283H273.245V182.126H288.401V151.812H303.558V166.97H318.714V182.126H303.558V212.439H288.401V257.91H303.558V318.537H288.401V348.85H273.245V424.634H288.401V454.946L288.402 454.948H303.558V470.103H318.714V485.261H333.871V515.575H318.714V500.418H303.558V485.261H288.401V470.103H273.245V454.948H258.088V439.79H242.932V424.634H212.617V439.79H182.303V470.103H167.147V545.888H182.303V561.045H197.46V591.359H242.932V606.514H273.245V591.359H288.401V545.888H303.558V636.828H288.402V651.986H212.617V667.143H197.46V636.828H182.303V621.672H167.147V591.359H151.991L151.99 621.67L167.147 621.672V636.828H182.303V651.986ZM151.99 636.828V651.986H151.993V636.828H151.99Z" fill="#004B57"/>
<path fill-rule="evenodd" clip-rule="evenodd" d="M898.873 486.37V572.229L863.767 607.57L776.141 607.337V451.261H863.764L898.873 486.37ZM809.935 573.552H865.08V485.054H809.935V573.552Z" fill="white"/>
<path fill-rule="evenodd" clip-rule="evenodd" d="M1055.54 607.345H1021.75V562.875H966.603V607.345H932.809V486.37L967.918 451.261H1055.54V607.345ZM966.603 529.082H1021.75V485.054H966.603V529.082Z" fill="white"/>
<path fill-rule="evenodd" clip-rule="evenodd" d="M1208.95 485.054H1164.48V607.345H1130.69V485.054H1086.22V451.261H1208.95V485.054Z" fill="white"/>
<path fill-rule="evenodd" clip-rule="evenodd" d="M1358.89 607.345H1325.09V562.875H1269.95V607.345H1236.16V486.37L1271.27 451.261H1358.89V607.345ZM1269.95 529.082H1325.09V485.054H1269.95V529.082Z" fill="white"/>
<path d="M898.873 255.812V282.511H865.08V260.054H809.935V348.54L865.08 348.34V326.316H898.873V352.794L869.322 382.345H811.25L776.141 347.235V261.592L811.245 226.487L869.317 226.256L898.873 255.812Z" fill="white"/>
<path fill-rule="evenodd" clip-rule="evenodd" d="M971.051 287.406H1037.31V226.261H1071.11V382.345H1037.31V321.199H971.051V382.345H937.258V226.261H971.051V287.406ZM968.049 379.345H968.051V318.199H968.049V379.345ZM1068.11 379.345H1068.11V229.261H1068.11V379.345ZM968.049 290.406H968.051V229.261H968.049V290.406Z" fill="white"/>
<path fill-rule="evenodd" clip-rule="evenodd" d="M1143.46 348.552H1198.6V226.261H1232.4V358.353L1208.4 382.345H1133.66L1109.66 358.353V226.261H1143.46V348.552ZM1229.39 357.11L1207.16 379.345H1207.16L1229.4 357.11V229.261H1229.39V357.11ZM1140.46 351.552H1140.46V229.261H1140.46V351.552Z" fill="white"/>
<path fill-rule="evenodd" clip-rule="evenodd" d="M1393.51 255.812V282.511H1359.72V260.054H1304.57V348.54L1359.72 348.34V326.316H1393.51V352.794L1363.96 382.345H1305.89L1270.78 347.235V261.592L1305.88 226.487L1363.95 226.256L1393.51 255.812ZM1301.57 351.552L1301.57 351.551V257.054L1301.57 351.552Z" fill="white"/>
<path fill-rule="evenodd" clip-rule="evenodd" d="M1460.12 287.406H1509.71V226.261H1543.5V274.973L1521.27 297.207V300.28L1543.5 322.516V382.345H1509.71V321.199H1460.12V382.345H1426.33V226.261H1460.12V287.406Z" fill="white"/>
<path d="M1108.53 132.271L1119.97 111.086H1128.83L1099.71 163.627H1090.78L1103.99 140.399L1087.62 111.086H1096.67L1108.53 132.271Z" fill="#EDFF95"/>
<path fill-rule="evenodd" clip-rule="evenodd" d="M932.286 110.122C942.609 110.122 950.737 118.25 950.737 129.536C950.737 140.823 942.61 148.95 932.286 148.95C927.048 148.95 923.273 146.832 920.73 143.597V163.396H912.68V111.085H920.73V115.477C923.273 112.241 927.048 110.122 932.286 110.122ZM931.323 117.711C924.659 117.711 920.192 122.795 920.191 129.536C920.191 136.277 924.659 141.362 931.323 141.362C938.257 141.362 942.456 136.008 942.456 129.536C942.456 123.065 938.257 117.711 931.323 117.711Z" fill="#EDFF95"/>
<path fill-rule="evenodd" clip-rule="evenodd" d="M976.394 110.122C986.717 110.122 993.804 117.981 993.843 129.498C993.843 130.538 993.766 131.578 993.689 132.503H966.417C967.496 139.128 972.157 141.901 977.396 141.901C981.093 141.901 985.022 140.437 988.065 138.011L992.071 143.75C987.564 147.602 982.48 148.95 976.895 148.95C965.839 148.95 958.02 141.246 958.02 129.536C958.02 117.98 965.531 110.122 976.394 110.122ZM976.239 117.287C970.5 117.287 967.303 120.985 966.455 126.378H985.6C984.714 120.638 981.362 117.287 976.239 117.287Z" fill="#EDFF95"/>
<path d="M1068.59 111.085H1082.73V118.404H1068.59V134.467C1068.59 139.436 1071.21 141.362 1074.45 141.362C1076.95 141.362 1079.69 140.245 1081.88 138.858L1085.08 145.291C1082.12 147.294 1078.38 148.95 1073.76 148.95C1065.4 148.95 1060.51 144.444 1060.51 134.621V118.404H1053.15V111.085H1060.51V99.915H1068.59V111.085Z" fill="#EDFF95"/>
<path fill-rule="evenodd" clip-rule="evenodd" d="M832.407 147.987H823.047L817.731 134.236H793.31L787.993 147.987H778.941L800.243 94.0596H811.105L832.407 147.987ZM796.507 125.993H814.534L805.521 102.727L796.507 125.993Z" fill="#EDFF95"/>
<path d="M885.421 110.122C894.203 110.122 900.405 116.17 900.405 124.799V147.987H892.315V127.456C892.315 121.255 889.118 117.788 883.726 117.788C878.526 117.788 874.173 121.216 874.173 127.533V147.987H866.084V127.456C866.084 121.255 862.887 117.788 857.494 117.788C852.294 117.788 847.941 121.216 847.94 127.533V147.987H839.852V111.085H847.863V115.592C850.829 111.239 855.414 110.122 859.188 110.122C864.812 110.122 869.396 112.626 871.938 116.709C875.136 111.432 880.837 110.122 885.421 110.122Z" fill="#EDFF95"/>
<path d="M1022.47 110.122C1024.94 110.122 1026.82 110.43 1028.67 111.162L1026.75 119.136C1025.05 118.25 1022.59 117.788 1020.62 117.788C1015.5 117.788 1011.84 121.409 1011.84 127.688V147.987H1003.79V111.085H1011.76V115.245C1014.19 111.74 1017.96 110.122 1022.47 110.122Z" fill="#EDFF95"/>
<path d="M1044.98 147.987H1036.89V111.085H1044.98V147.987Z" fill="#EDFF95"/>
<path d="M1040.9 92.6338C1044.09 92.6338 1046.6 95.138 1046.6 98.335C1046.6 101.532 1044.09 103.959 1040.9 103.959C1037.7 103.959 1035.27 101.532 1035.27 98.335C1035.27 95.1379 1037.7 92.6338 1040.9 92.6338Z" fill="#EDFF95"/>
</svg>
