<svg width="933" height="1000" viewBox="0 0 933 1000" fill="none" xmlns="http://www.w3.org/2000/svg">
<g clip-path="url(#clip0_7624_175)">
<path d="M533.335 244.445V266.668H511.112V244.445H533.335ZM755.556 244.445V266.668H733.335V244.445H755.556ZM466.668 200H511.112V244.445H466.668V200ZM688.889 200H733.335V244.445H688.889V200Z" fill="#EDFF95"/>
<path d="M755.555 244.446H733.332L733.33 200H755.553L755.555 244.446Z" fill="#646900"/>
<path d="M533.332 244.444H511.109V200H533.332V244.444Z" fill="#646900"/>
<path d="M622.227 400H666.671V444.444H622.227V400Z" fill="white"/>
<path fill-rule="evenodd" clip-rule="evenodd" d="M666.668 733.333H688.889V755.554H711.112V799.998H688.889V844.445H666.668V866.666H644.445V888.887H622.224V911.11H511.112V888.887H488.891V866.666H466.668V799.998H488.891V777.777H533.335V755.554H555.556V733.333H577.779V711.11H666.668V733.333Z" fill="#ABF4F7"/>
<path d="M822.223 711.11H800.002V688.889H822.223V711.11Z" fill="#ABF4F7"/>
<path d="M844.444 688.889H822.223V666.666H844.444V688.889Z" fill="#ABF4F7"/>
<path fill-rule="evenodd" clip-rule="evenodd" d="M688.889 555.554L688.891 533.333H711.112V622.222H688.889V644.443H666.668V666.666H600V644.443H577.779V622.222H555.558V533.333H577.779V511.11H688.889V555.554Z" fill="#ABF4F7"/>
<path d="M866.667 644.443H844.444V511.11H866.667V644.443Z" fill="#ABF4F7"/>
<path d="M844.444 511.11H822.223V422.222H844.444V511.11Z" fill="#ABF4F7"/>
<path d="M622.224 444.445H600V399.999H622.224V444.445Z" fill="#ABF4F7"/>
<path d="M600 333.334H622.224V377.778H577.779V400.001H533.335V377.778H511.112V333.334H533.335V311.111H600V333.334Z" fill="#ABF4F7"/>
<path fill-rule="evenodd" clip-rule="evenodd" d="M733.335 333.334H755.556L755.558 377.778H733.335V355.557L733.333 400.001H688.889V377.778H644.445V333.334H666.668V311.111H733.335V333.334ZM711.112 355.557H733.335L733.333 355.555L711.112 355.557Z" fill="#ABF4F7"/>
<path d="M866.667 399.999H844.444V377.778H866.667V399.999Z" fill="#ABF4F7"/>
<path d="M911.112 355.557L866.667 355.555V333.334H911.112V355.557Z" fill="#ABF4F7"/>
<path d="M933.333 311.111H866.667V288.89H933.333V311.111Z" fill="#ABF4F7"/>
<path d="M888.888 266.666H866.667V244.445H888.888V266.666Z" fill="#ABF4F7"/>
<path d="M866.667 244.445H844.444V222.222H866.667V244.445Z" fill="#ABF4F7"/>
<path d="M800 88.8898H822.223V177.778H800V111.111H777.779V88.8898H755.556V66.6667H800V88.8898Z" fill="#ABF4F7"/>
<path d="M155.555 866.668H133.334V911.112L88.8899 911.11V933.333H22.2227V911.112H44.4457V888.889H88.8899V866.666H111.111V844.445H155.555V866.668Z" fill="#007383"/>
<path d="M799.998 777.778H777.777V800.001H755.554V888.889H777.777V911.11L733.331 911.112V888.887H688.887V866.666H711.11V822.222H733.331V777.778H755.554V755.557H777.777V733.334H799.998V777.778Z" fill="#007383"/>
<path fill-rule="evenodd" clip-rule="evenodd" d="M333.334 622.224H355.555V644.445H311.111V666.668H288.89V755.555H311.111V777.776H288.89L333.334 777.778V800.001H399.999V844.445H377.778V866.668H333.334V844.445H266.667V800.001H244.443V777.778H222.222V666.668H244.443L244.445 622.222H288.89V600.001H333.334V622.224Z" fill="#007383"/>
<path d="M177.778 844.445H155.555V822.222H177.778V844.445Z" fill="#007383"/>
<path d="M399.999 577.778H422.222V622.224H444.443V644.445H466.666V666.668H488.887V711.113H466.666V688.889H444.443V666.666H422.222V644.445H399.999V600.001H377.778V488.888H399.999V577.778Z" fill="#007383"/>
<path d="M555.555 666.668L511.112 666.666V644.445H555.555V666.668Z" fill="#007383"/>
<path d="M777.777 622.222H755.554V666.668H711.11V644.445H733.331V600.001H755.554V555.557H777.777V622.222Z" fill="#007383"/>
<path d="M511.11 622.222H533.333V644.443H511.11L511.112 644.445H488.887V600.001H511.11V622.222Z" fill="#007383"/>
<path d="M444.443 466.667H422.222V488.888H399.999V444.444H422.222V422.224H444.443V466.667Z" fill="#007383"/>
<path d="M311.113 377.778H244.445V355.555H288.89V333.334H311.113V377.778Z" fill="#007383"/>
<path d="M333.334 266.667H311.113V244.446H288.89V222.223H333.334V266.667Z" fill="#007383"/>
<path d="M355.557 222.223H333.334V200.002H355.557V222.223Z" fill="#007383"/>
<path d="M466.666 133.336H444.443V88.8903H466.666V133.336Z" fill="#007383"/>
<path d="M555.557 22.225H688.887V44.4461H733.331L733.333 88.8903H711.11V111.113H666.666V66.6692H622.222V88.8903H577.778V66.6692H533.333V44.4461H466.666V22.223H511.11V0.00195312H555.557V22.225Z" fill="#007383"/>
<path d="M755.554 66.6692H733.333L733.331 44.4461H755.554V66.6692Z" fill="#007383"/>
<path d="M777.776 866.666H799.999V888.889H755.555V800.001H777.776V866.666Z" fill="#00A0B2"/>
<path fill-rule="evenodd" clip-rule="evenodd" d="M377.776 666.668H399.999V688.889H422.22V711.112H399.999V800.001H333.332V777.778H311.111V755.557H288.888V711.112H288.884V688.889H288.888V666.668H333.332V644.445H377.776V666.668ZM311.107 711.112H311.111V688.889H311.107V711.112Z" fill="#00A0B2"/>
<path d="M777.774 644.445H799.997V688.887H777.776L799.999 688.889V711.112L755.553 711.11V688.889H733.329V666.666H755.553V622.222H777.774V644.445Z" fill="#00A0B2"/>
<path d="M444.443 511.113H466.665V555.557H488.888V644.445H511.111V688.889H488.888V666.668H466.665V644.445H444.443V622.224H422.22V577.778H399.999V488.89H422.22V466.669H444.443V511.113Z" fill="#00A0B2"/>
<path d="M822.22 666.668H799.999L799.997 644.445H822.22V666.668Z" fill="#00A0B2"/>
<path d="M333.33 666.666H311.107V644.445H333.332L333.33 666.666Z" fill="#00A0B2"/>
<path d="M822.22 533.334H844.441V599.999H844.445V622.222H822.222V599.999L822.22 644.445L777.776 644.443L777.774 622.222L777.776 488.89H799.997V466.667H822.22V533.334Z" fill="#00A0B2"/>
<path d="M466.667 511.111H444.446V488.89H466.667V511.111Z" fill="#00A0B2"/>
<path d="M599.999 444.446H666.664V422.224H733.331V444.446H688.889V466.667H666.666L666.664 444.446V466.669H577.776V444.446H533.332V422.224H599.999V444.446Z" fill="#00A0B2"/>
<path d="M444.441 266.669H466.665V311.111L466.667 288.89H577.776V311.113H533.334V333.334H511.111V355.555H488.89V333.334L488.888 377.778H511.107V399.999L466.665 400.001V377.778H444.446V355.555H422.222L444.443 355.557V422.224H422.22V355.557H399.999V311.113H422.22V333.334L422.222 311.111L399.999 311.113V288.89H422.22L422.218 244.446H444.441V266.669Z" fill="#00A0B2"/>
<path d="M755.555 422.224H733.331V400.001H755.555V422.224Z" fill="#00A0B2"/>
<path d="M533.334 422.222H511.113V399.999H533.334V422.222Z" fill="#00A0B2"/>
<path fill-rule="evenodd" clip-rule="evenodd" d="M844.443 244.446H866.664V288.89H844.443V266.669H844.439V288.89H844.443V333.334H822.222L822.22 377.778H799.999V400.001H755.555V377.78L755.553 333.334H733.333V311.113H688.887V288.89H799.999V266.667H822.22V222.225H844.443V244.446ZM777.776 355.555L777.778 355.557V311.113L777.776 355.555Z" fill="#00A0B2"/>
<path fill-rule="evenodd" clip-rule="evenodd" d="M666.664 266.669H688.887V288.89H577.776V266.669H599.999V222.225H666.664V266.669Z" fill="#00A0B2"/>
<path d="M644.439 111.113H644.443V155.558H688.885V133.334L755.555 133.336V177.781H466.665V155.558H511.111V133.336H555.553L555.555 133.334V111.113H577.776V133.336H622.22L622.218 88.8903H644.439V111.113Z" fill="#00A0B2"/>
<path d="M555.553 133.336L533.33 133.334V111.111H555.553V133.336Z" fill="#00A0B2"/>
<path d="M711.108 44.4462H688.887V22.2251H555.555V0H711.108V44.4462Z" fill="#00A0B2"/>
<path d="M733.333 44.4462H711.108L711.11 22.2231H733.333V44.4462Z" fill="#00A0B2"/>
<path d="M22.2231 933.333H0V911.112H22.2231V933.333Z" fill="#54D3DE"/>
<path d="M44.4442 911.112H22.2231V888.889H44.4442V911.112Z" fill="#54D3DE"/>
<path d="M88.8883 888.889H44.4442V866.668H88.8883V888.889Z" fill="#54D3DE"/>
<path d="M111.111 844.445V866.668H88.8883L66.6692 866.666V844.443L111.111 844.445Z" fill="#54D3DE"/>
<path d="M155.556 844.445H111.111V822.222H155.556V844.445Z" fill="#54D3DE"/>
<path d="M444.443 733.331H466.665V755.554H488.888V777.775V800H466.665V866.666H488.888V888.887H511.109V911.11H622.22V888.887H644.443V866.666H666.664V844.443H688.887V799.998H711.108V777.777H733.331V822.221H711.108V866.666H688.887V888.889H666.664V911.11H644.443V933.331H622.22V955.554H599.999V977.777H466.665V955.554H444.443V933.331H399.999V911.11H422.22V777.777H399.999V711.11H444.443V733.331Z" fill="#54D3DE"/>
<path d="M266.667 933.333H244.444V911.11H266.667V933.333Z" fill="#54D3DE"/>
<path d="M244.444 911.11H222.221V888.887H244.444V911.11Z" fill="#54D3DE"/>
<path d="M222.221 888.887L200 888.889V844.445H222.221V888.887Z" fill="#54D3DE"/>
<path d="M799.999 866.666H777.776V777.777H799.999V866.666Z" fill="#54D3DE"/>
<path d="M177.777 800H200V844.445H177.777V822.221L155.556 822.222L155.554 644.443H177.777V800Z" fill="#54D3DE"/>
<path d="M799.999 733.333H777.776V711.11H799.999V733.333Z" fill="#54D3DE"/>
<path fill-rule="evenodd" clip-rule="evenodd" d="M866.664 377.778H844.443V422.222H822.22V466.666H799.997V488.889H777.776L777.774 555.554H755.553V599.999H733.331L733.329 644.443H711.108V666.666H688.887V688.887H644.443L666.664 688.889V711.11H577.776V688.889H555.553V644.443H533.33V622.222H511.109V599.999H488.886V555.554L488.888 488.889L488.886 488.887H466.665L444.441 488.889V377.778H466.665V399.999H511.109V422.222H533.332V444.445L577.776 444.443V466.666H688.887V444.443H733.331V422.222H755.553V399.999H799.997V377.778H822.218L822.22 333.334H844.441V288.89H866.664V377.778ZM644.441 511.11H577.776V533.331H555.553V622.222H577.776V644.443H599.997V666.666H666.664V644.443H688.887V622.222H711.108V533.333H688.885V511.11H644.441ZM733.329 533.331L733.331 533.333V511.11L733.329 533.331Z" fill="#54D3DE"/>
<path d="M822.22 688.889H799.997V666.666H822.22V688.889Z" fill="#54D3DE"/>
<path d="M844.443 666.666H822.22V622.222H844.443V666.666Z" fill="#54D3DE"/>
<path d="M200 644.443H177.777V599.999H200V644.443Z" fill="#54D3DE"/>
<path d="M222.221 600.001L200 599.999L199.998 555.556H222.221V600.001Z" fill="#54D3DE"/>
<path d="M244.444 555.556H222.221V511.112H244.444V555.556Z" fill="#54D3DE"/>
<path d="M488.886 555.554H466.665V488.887L488.888 488.889L488.886 555.554Z" fill="#54D3DE"/>
<path d="M844.443 533.333H822.22V511.11H844.443V533.333Z" fill="#54D3DE"/>
<path d="M266.667 511.112H244.444V488.889H266.667V511.112Z" fill="#54D3DE"/>
<path d="M288.888 488.889H266.667V466.668H288.888V488.889Z" fill="#54D3DE"/>
<path d="M311.111 466.668H288.888V444.445H311.111V466.668Z" fill="#54D3DE"/>
<path d="M355.553 422.224H333.332V444.445H311.111V422.222H333.33V400.001H355.553V422.224Z" fill="#54D3DE"/>
<path d="M377.776 400.001H355.553L355.555 377.778H377.776V400.001Z" fill="#54D3DE"/>
<path d="M355.555 355.555H311.111V333.334H355.555V355.555Z" fill="#54D3DE"/>
<path d="M355.553 311.113L288.888 311.111V288.89H355.553V311.113Z" fill="#54D3DE"/>
<path d="M377.776 266.666H355.555V244.445H377.776V266.666Z" fill="#54D3DE"/>
<path d="M399.999 244.445H377.776V199.999H399.999V244.445Z" fill="#54D3DE"/>
<path d="M422.22 200.001L399.999 199.999V155.557H422.22V200.001Z" fill="#54D3DE"/>
<path d="M777.774 155.555H799.997V177.778H755.553V133.334H733.331V111.111H755.553V88.8898H777.776L777.774 155.555Z" fill="#54D3DE"/>
<path d="M444.443 155.555L422.22 155.557V88.8898H444.443V155.555Z" fill="#54D3DE"/>
<path d="M511.109 88.8898H555.553V111.111H533.33V133.334H511.109V155.555H488.886V88.8898H444.443V66.6667H511.109V88.8898Z" fill="#54D3DE"/>
<path d="M399.994 955.554H399.998V933.333H444.438V977.778H311.106V955.554H288.883V933.333H399.994V955.554Z" fill="#0C0C0C"/>
<path d="M711.105 933.333H777.771V977.778H644.44V955.556H666.659L622.215 955.554V933.333H711.105Z" fill="#0C0C0C"/>
<path fill-rule="evenodd" clip-rule="evenodd" d="M533.329 666.666H555.552V688.89H577.771V733.334H555.55V755.555H533.329L533.327 755.557V777.778H488.883V755.555H466.659V711.111H488.883V688.89H511.104V666.666H533.329Z" fill="#0C0C0C"/>
<path d="M733.326 688.89H755.548V711.111H777.771V755.555H755.548V777.778H711.103V755.555H688.882V733.334H666.659V688.89H688.882V666.666H733.326V688.89Z" fill="#0C0C0C"/>
<path d="M666.659 333.334H644.442V377.778H688.886V400.001H577.775V377.778H622.219V333.334H599.994V311.113H666.659V333.334Z" fill="#0C0C0C"/>
<path fill-rule="evenodd" clip-rule="evenodd" d="M488.883 200.002H466.665V244.446H511.11V266.667H533.333V200.002H488.889V177.779H822.215V200H822.219V266.667H799.998V288.89H777.775H688.882V266.667H666.665V222.223H599.998V266.669H577.775L577.773 266.667V288.89H466.665V266.667H444.444V222.225H422.221V177.779H488.883V200.002ZM688.888 244.446H711.105V266.667H711.109V244.446H733.332V266.667H755.554V200.002H688.888V244.446Z" fill="#0C0C0C"/>
<path d="M844.444 222.225H822.221V177.779H844.444V222.225Z" fill="#0C0C0C"/>
<path d="M488.891 133.335H466.667V88.8904H488.891V133.335Z" fill="#0C0C0C"/>
<path d="M800 133.335H777.779V111.111H800V133.335Z" fill="#0C0C0C"/>
<path d="M466.662 1000H311.106V977.777H444.439V955.556H466.662V1000Z" fill="#004B57"/>
<path d="M799.996 1000H644.439V977.777H777.773V955.556H799.994L799.996 1000Z" fill="#004B57"/>
<path d="M311.106 977.777H288.885V955.556H311.106V977.777Z" fill="#004B57"/>
<path d="M644.439 977.777H622.217V955.556H644.439V977.777Z" fill="#004B57"/>
<path d="M733.326 911.111H777.773V933.333H644.439V911.111H666.661V888.889H733.326V911.111Z" fill="#004B57"/>
<path d="M599.995 422.222H533.33V400.001H599.995V422.222Z" fill="#004B57"/>
<path d="M733.326 422.222H666.661V400.001H733.326V422.222Z" fill="#004B57"/>
<path d="M533.33 400.001H511.105V377.778H533.33V400.001Z" fill="#004B57"/>
<path d="M755.55 400.001H733.326V377.778H755.55V400.001Z" fill="#004B57"/>
<path d="M511.105 377.778H488.883V355.557H511.105V377.778Z" fill="#004B57"/>
<path d="M688.884 311.113H577.773V288.89H688.884V311.113Z" fill="#004B57"/>
<path d="M488.883 155.557H466.662V177.778H422.218V155.557H444.439V133.335H488.883V155.557Z" fill="#004B57"/>
<path d="M533.33 66.6695H577.773V88.8907H622.217V66.6695H666.661V111.113H711.105V88.8907H733.326V66.6695H755.55V111.113H733.326V133.335H688.882V155.557H644.439V88.8907H622.217V133.335H577.773V111.113H555.551V88.8907H511.105V66.6695H444.439V44.4453H533.33V66.6695Z" fill="#004B57"/>
<path d="M799.994 155.557H777.773V133.335H799.994V155.557Z" fill="#004B57"/>
<path d="M444.439 88.8907H422.218V66.6695H444.439V88.8907Z" fill="#004B57"/>
<path fill-rule="evenodd" clip-rule="evenodd" d="M244.439 933.333H222.221V955.554L155.556 955.556V933.333H155.551V955.556H155.556V977.777H22.2227V955.556H0V933.333H88.8848V911.111H133.33V866.665H155.551V844.445L199.995 844.443V800H177.774V644.446H199.995V600H222.218V555.557H244.439V511.113H266.662V488.89H288.885V466.669H311.106V444.446H333.33V422.222H355.551V400.001H377.774V377.778H355.551V400.001H333.33V422.222H311.106V444.446H288.885V422.222H266.662V377.778H311.106V355.557H355.551V333.334H311.106V311.112L355.551 311.113V288.89H333.33V222.225H355.551V177.778H377.774V133.335H399.995V88.8907H422.218V155.557H399.995V200.001H377.774V244.446H355.551V266.669H377.774V244.446H399.995V200.001H422.218V222.225H444.439V244.446H422.218V288.89H399.995V355.557H422.218V444.446H399.995V488.89H377.774V600H399.995V644.443L399.996 644.446H422.218V666.666H444.439V688.89H466.662V733.334H444.439V711.112H422.218V688.89H399.995V666.666H377.774V644.446H355.551V622.222H333.33V600H288.885V622.222H244.439V666.666H222.218V777.777H244.439V800H266.662V844.445H333.33V866.665H377.774V844.445H399.995V777.777H422.218V911.111H399.996V933.333H288.885V955.556H266.662V911.111H244.439V888.889H222.218V844.445H199.997L199.995 888.886L222.218 888.889V911.111H244.439V933.333ZM199.995 911.111V933.333H200V911.111H199.995Z" fill="#004B57"/>
</g>
<defs>
<clipPath id="clip0_7624_175">
<rect width="933" height="1000" fill="white"/>
</clipPath>
</defs>
</svg>
