<?xml version="1.0" encoding="utf-8"?>
<!-- Generator: Adobe Illustrator 25.2.1, SVG Export Plug-In . SVG Version: 6.00 Build 0)  -->
<svg version="1.1" id="Layer_1" xmlns="http://www.w3.org/2000/svg" xmlns:xlink="http://www.w3.org/1999/xlink" x="0px" y="0px"
	 viewBox="0 0 800 800" style="enable-background:new 0 0 800 800;" xml:space="preserve">
<style type="text/css">
	.st0{fill:#FFFFFF;}
	.st1{fill:#DFF941;}
</style>
<g>
	<path class="st0" d="M544.5,551.5c-2.4,0-4.4,0.8-6.1,2.5c-1.6,1.6-2.4,3.7-2.4,6.1c0,2.4,0.8,4.4,2.4,6.1c1.6,1.6,3.6,2.4,6.1,2.4
		c2.4,0,4.4-0.8,6.1-2.4c1.6-1.6,2.5-3.7,2.5-6.1c0-2.4-0.8-4.4-2.5-6.1C548.9,552.3,546.8,551.5,544.5,551.5z"/>
	<path class="st0" d="M155.9,553.5h-14.7L102,648.9h13.4l10.5-26h44.7l10.3,25.3l0.3,0.7H195L156,554L155.9,553.5z M165.7,610.7H131
		l17.4-42.6L165.7,610.7z"/>
	<path class="st0" d="M287.5,582.5c-5.1,0-9.9,1.1-14.3,3.3c-3.9,2-7.1,4.9-9.5,8.8c-2.1-3.5-5-6.4-8.7-8.5
		c-4.3-2.4-9.3-3.6-14.9-3.6c-4.3,0-8.5,0.9-12.4,2.5c-3,1.3-5.6,3.2-7.8,5.7v-6.9h-12V649H220v-36.6c0-5.5,1.8-9.9,5.2-13.2
		c3.5-3.3,7.9-5,13-5c5.4,0,9.7,1.6,12.6,4.7c3,3.1,4.5,7.6,4.5,13.3v36.9h12.1v-36.6c0-5.5,1.8-9.9,5.2-13.2c3.5-3.3,7.9-5,13-5
		c5.4,0,9.7,1.6,12.7,4.7c3,3.1,4.5,7.6,4.5,13.3v36.9h12.1V609c0-7.9-2.6-14.3-7.6-19.1C302.3,584.9,295.6,582.5,287.5,582.5z"/>
	<path class="st0" d="M366.4,582.5c-9,0-16.4,2.9-21.9,8.8v-7.5h-12.1v92.1h12.1v-34.4c5.5,5.8,12.9,8.8,21.9,8.8
		c9.2,0,17-3.3,23.2-9.7s9.3-14.6,9.3-24.2c0-9.7-3.1-17.8-9.4-24.2C383.4,585.7,375.6,582.5,366.4,582.5z M349.9,600.3
		c4-4.2,9.2-6.4,15.3-6.4c6.2,0,11.4,2.2,15.4,6.4c4,4.3,6,9.6,6,15.9c0,6.4-2,11.7-6,16c-3.9,4.3-9.1,6.4-15.4,6.4
		c-6.2,0-11.3-2.1-15.3-6.4c-4-4.2-6-9.7-6-16.1C343.9,609.9,345.9,604.5,349.9,600.3z"/>
	<path class="st0" d="M442,582.5c-9.3,0-17.1,3.2-23.2,9.5s-9.1,14.5-9.1,24.3c0,10,3.1,18.2,9.2,24.4s14.1,9.4,23.7,9.4
		c10.6,0,19.6-3.4,26.6-10.1l0.7-0.7l-6.6-8.5l-0.8,0.8c-5.5,5.1-12,7.6-19.2,7.6c-5.7,0-10.5-1.7-14.4-5.1
		c-3.6-3.2-5.9-7.6-6.7-13.3h50.3l0.1-0.9c0.1-1.1,0.2-2.4,0.2-3.9c0-9.8-3-17.9-8.7-24.2C458.2,585.6,450.8,582.5,442,582.5z
		 M428.5,598.5c3.5-3.3,7.9-5,13.3-5c5,0,9.3,1.7,12.7,5c3.1,3.1,5.1,7.2,5.8,12.3h-38C423.1,605.7,425.2,601.6,428.5,598.5z"/>
	<path class="st0" d="M515,582.5c-4,0-7.8,0.9-11.1,2.8c-2.4,1.3-4.6,3.1-6.5,5.3v-6.8h-12V649h12.1v-36.4c0-5.6,1.5-10.2,4.5-13.5
		c2.9-3.3,6.8-5,11.4-5c4,0,7.5,0.8,10.4,2.4l1.2,0.7l2.8-11.4l0.1-0.5l-0.8-0.4C523.8,583.2,519.8,582.5,515,582.5z"/>
	<rect x="538.4" y="583.7" class="st0" width="12.1" height="65.2"/>
	<path class="st0" d="M611.5,634.5c-3.9,2.8-8.1,4.3-12.6,4.3c-3.5,0-6.3-1.1-8.3-3.2c-2-2.1-3.1-5.5-3.1-9.9v-30.8h24.8l-6.5-10.8
		l-0.2-0.3h-18.1v-20h-12.1v20h-13.8v11.1h13.8v31c0,8,2,14.1,5.9,18.2c3.9,4.1,9.6,6.2,16.8,6.2s13.7-2.2,19.4-6.5l0.8-0.6
		l-5.8-9.3L611.5,634.5z"/>
	<polygon class="st0" points="677.3,583.7 656.5,620.1 632.6,584 632.4,583.7 618.5,583.7 650,631.3 625.2,674.8 624.7,675.8 
		638.1,675.8 690.1,584.7 690.6,583.7 	"/>
</g>
<g>
	<path class="st1" d="M513.9,272.4c-16.5,0-29.9,13.4-29.9,29.9s13.4,29.9,29.9,29.9s29.9-13.4,29.9-29.9
		C543.7,285.8,530.3,272.4,513.9,272.4z"/>
	<path class="st0" d="M466,341.1l-49.5,26.6c0.4,2.4,0.5,4.8,0.5,7.2c0,26.3-21.5,47.7-47.8,47.7s-47.7-21.5-47.7-47.9
		c0-26.3,21.5-47.7,47.8-47.7c13.9,0,26.4,6.1,35.1,15.6l46.2-24.8l-61.5-93c-0.5,0-0.9,0.1-1.4,0.1c-14.2,0-25.7-11.5-25.7-25.7
		s11.5-25.7,25.7-25.7s25.7,11.5,25.7,25.7c0,4.9-1.5,9.3-3.8,13.2l35.9,54.2c19.1-16.3,31.3-40.5,31.4-67.5
		C477,150,437.1,110,388,109.9s-89.1,39.8-89.2,88.9c0,26,11.1,49.5,28.9,65.8c-44.4,16.8-76.1,59.7-76.2,109.9
		c-0.1,64.9,52.6,117.8,117.5,117.9c36,0.1,68.3-16.1,89.9-41.7l17.4,26.2H556L466,341.1z"/>
</g>
</svg>
