<?xml version="1.0" encoding="utf-8"?>
<!-- Generator: Adobe Illustrator 24.3.0, SVG Export Plug-In . SVG Version: 6.00 Build 0)  -->
<svg version="1.1" id="Layer_1" xmlns="http://www.w3.org/2000/svg" xmlns:xlink="http://www.w3.org/1999/xlink" x="0px" y="0px"
	 viewBox="0 0 800 800" style="enable-background:new 0 0 800 800;" xml:space="preserve">
<style type="text/css">
	.st0{fill:#0C0C0C;}
</style>
<g>
	<g>
		<path class="st0" d="M123.3,580L80.4,684.5h16.3l11.4-28h47.2l11,27.1l0.4,1h16.6L140.3,580H123.3z M149.2,641.7h-35.1l17.6-43.1
			L149.2,641.7z"/>
		<path class="st0" d="M281.9,611.2c-5.6,0-10.9,1.2-15.8,3.7c-4,2-7.3,4.9-9.8,8.7c-2.3-3.4-5.3-6.2-9-8.3c-4.7-2.7-10.3-4-16.5-4
			c-4.8,0-9.4,0.9-13.7,2.8c-2.7,1.2-5.1,2.8-7.2,4.8v-6.3h-14.6v72h14.7v-40.3c0-5.7,1.8-10.3,5.4-13.7c3.6-3.4,8.1-5.2,13.5-5.2
			c5.6,0,10,1.6,13.1,4.8c3,3.2,4.6,7.9,4.6,13.8v40.6H261v-40.3c0-5.7,1.8-10.3,5.4-13.7c3.6-3.4,8.1-5.2,13.5-5.2
			c5.6,0,10,1.6,13.1,4.8c3.1,3.2,4.6,7.9,4.6,13.8v40.6h14.6v-44.2c0-8.7-2.9-15.8-8.5-21.2C298.2,613.9,290.8,611.2,281.9,611.2z"
			/>
		<path class="st0" d="M366.9,611.2c-9.2,0-16.9,2.8-22.8,8.3v-7h-14.7v101H344v-36c5.9,5.5,13.6,8.3,22.8,8.3
			c10.1,0,18.8-3.6,25.6-10.7c6.8-7.1,10.3-16.1,10.3-26.7s-3.5-19.6-10.3-26.7C385.6,614.8,377,611.2,366.9,611.2z M387.9,648.5
			c0,6.6-2.1,12.3-6.2,16.7c-4.1,4.4-9.5,6.7-16.1,6.7c-6.4,0-11.8-2.2-16-6.6c-4.2-4.4-6.3-10.1-6.3-16.8c0-6.7,2.1-12.3,6.3-16.7
			c4.1-4.4,9.5-6.6,16-6.6c6.5,0,11.9,2.2,16,6.7C385.8,636.3,387.9,641.9,387.9,648.5z"/>
		<path class="st0" d="M448.8,611.2c-10.3,0-18.9,3.6-25.6,10.6c-6.7,7-10.1,16-10.1,26.8c0,11,3.4,20,10.2,26.9
			c6.8,6.9,15.6,10.4,26.2,10.4c11.7,0,21.5-3.8,29.3-11.2l1.3-1.2l-8.2-10.4l-1.6,1.4c-5.8,5.3-12.6,8-20.2,8c-5.9,0-11-1.8-15-5.3
			c-3.6-3.1-5.9-7.5-6.8-13h54l0.2-1.7c0.2-1.3,0.2-2.7,0.2-4.3c0-10.8-3.3-19.7-9.6-26.6C466.8,614.7,458.6,611.2,448.8,611.2z
			 M428.5,641.7c1-4.8,3.1-8.8,6.3-11.8c3.6-3.5,8.2-5.2,13.8-5.2c5.2,0,9.6,1.7,13.1,5.1c3.1,3,5,7,5.9,11.9H428.5z"/>
		<path class="st0" d="M541,613.7c-3.6-1.6-8.1-2.5-13.3-2.5c-4.5,0-8.7,1-12.4,3.1c-2.1,1.2-4.1,2.6-5.8,4.4v-6.1h-14.6v72h14.6
			v-40.1c0-5.9,1.6-10.6,4.6-14.1c3-3.4,6.9-5.2,11.7-5.2c4.2,0,7.8,0.8,10.8,2.5l2.2,1.2l3.3-13.4l0-1.4L541,613.7z"/>
		<path class="st0" d="M559.5,577.7c-2.8,0-5.2,1-7.1,2.9c-1.9,1.9-2.8,4.3-2.8,7.1c0,2.8,1,5.2,2.9,7.1c1.9,1.9,4.3,2.9,7.1,2.9
			c2.8,0,5.2-1,7.1-2.9c1.9-1.9,2.9-4.3,2.9-7.1c0-2.8-1-5.2-3-7.2C564.7,578.7,562.3,577.7,559.5,577.7z"/>
		<rect x="552.2" y="612.5" class="st0" width="14.7" height="72"/>
		<path class="st0" d="M631.8,667.2l-0.4,0.3c-4,2.9-8.5,4.4-13.1,4.4c-3.5,0-6.4-1.1-8.4-3.2c-2.1-2.2-3.1-5.6-3.1-10.1v-32.4h25
			l-8.2-13.6h-16.8v-21.6h-14.6v21.6h-14.9v13.6h14.9v32.6c0,8.9,2.2,15.7,6.6,20.2c4.4,4.6,10.7,6.9,18.7,6.9
			c7.9,0,15.1-2.4,21.4-7.2l1.4-1.1l-7.1-11.4L631.8,667.2z"/>
		<polygon class="st0" points="698.6,612.5 676.6,651.1 651.1,612.5 634.1,612.5 668.7,664.8 640.9,713.6 657.3,713.6 714.9,612.5 
					"/>
	</g>
	<g>
		<path class="st0" d="M513.6,340.5c18.4,0,33.3-14.9,33.3-33.3c0-18.4-14.9-33.3-33.3-33.3c-18.4,0-33.3,14.9-33.3,33.3
			C480.3,325.5,495.2,340.5,513.6,340.5z"/>
		<path class="st0" d="M464.6,344.5L410,373.9l0.2,1.6c0.4,2.4,0.5,4.8,0.5,7.1c0,12.6-5,24.5-13.9,33.4
			c-8.9,8.9-20.8,13.8-33.4,13.8c0,0-0.1,0-0.1,0c-12.6,0-24.5-5-33.4-13.9c-8.9-9-13.8-20.8-13.8-33.5c0-12.6,5-24.5,13.9-33.4
			c8.9-8.9,20.8-13.8,33.3-13.8c0,0,0.1,0,0.1,0c13.4,0,26.3,5.8,35.3,16l0.1,0.1l51.8-27.8l-65.5-99l-1.3,0.1c-0.4,0-0.9,0-1.3,0
			c-13.4,0-24.4-10.9-24.4-24.3s10.9-24.3,24.4-24.3c13.4,0,24.4,10.9,24.4,24.3c0,4.7-1.4,9.3-4,13.2l-0.2,0.3l39.6,59.7l1.1-0.9
			c21.6-18.1,34-44.5,34-72.4c0-25.3-9.8-49.1-27.7-67c-17.9-17.9-41.6-27.8-66.9-27.9c-0.1,0-0.1,0-0.2,0
			c-25.2,0-48.9,9.8-66.8,27.7c-17.9,17.9-27.8,41.6-27.9,66.9c-0.1,25.3,10.2,49.7,28.2,67.5c-46.3,19.1-77.2,64.8-77.2,114.9
			C238.9,451,294.6,506.9,363.3,507c0.1,0,0.1,0,0.2,0c35.5,0,69.2-15.2,92.9-41.8l17.1,25.7h88.1L464.6,344.5z"/>
	</g>
</g>
</svg>
