<?xml version="1.0" encoding="utf-8"?>
<!-- Generator: Adobe Illustrator 25.2.1, SVG Export Plug-In . SVG Version: 6.00 Build 0)  -->
<svg version="1.1" id="Layer_1" xmlns="http://www.w3.org/2000/svg" xmlns:xlink="http://www.w3.org/1999/xlink" x="0px" y="0px"
	 viewBox="0 0 1713 730" style="enable-background:new 0 0 1713 730;" xml:space="preserve">
<style type="text/css">
	.st0{display:none;}
	.st1{display:inline;}
	.st2{fill:#CCF3FF;}
	.st3{fill:none;stroke:#CCF3FF;stroke-width:4.245;stroke-miterlimit:10;}
	.st4{fill:#DFF941;}
	.st5{fill:#FFFFFF;}
</style>
<g id="GUIDES" class="st0">
	<g class="st1">
		<g>
			<g>
				<circle class="st2" cx="393.4" cy="118.5" r="19.9"/>
			</g>
			<path class="st2" d="M360.7,209.5l10.2,15.2H422l-57.1-86.3l-32.2,17.4c0.5,2.2,0.8,4.5,0.8,6.8c0,15.4-12.5,27.8-27.8,27.8
				s-27.8-12.5-27.8-27.8c0-15.4,12.5-27.9,27.8-27.9c9.2,0,17.4,4.5,22.5,11.5l30.9-16.7l-40-60.4c-0.7,0.1-1.5,0.2-2.3,0.2
				c-7.5,0-13.5-6-13.5-13.5s6-13.5,13.5-13.5s13.5,6,13.5,13.5c0,3.2-1.1,6.2-3.1,8.6l23.4,35.4l3.3-2.2
				c11.5-10.2,18.8-25.1,18.8-41.7c0-30.9-25-55.9-55.9-55.9s-55.9,25-55.9,55.8c0,15.7,6.5,29.9,16.9,40
				c-26.1,10.9-44.5,36.7-44.5,66.8c0,39.9,32.5,72.3,72.3,72.3C327.7,235,347.4,225.1,360.7,209.5z"/>
		</g>
		<g>
			<g>
				<circle class="st2" cx="392.6" cy="613.4" r="19.9"/>
			</g>
			<path class="st2" d="M359.9,704.4l10.2,15.2h51.1L364,633.3l-32.2,17.4c0.5,2.2,0.8,4.5,0.8,6.8c0,15.4-12.5,27.8-27.8,27.8
				S277,673,277,657.6s12.5-27.8,27.8-27.8c9.2,0,17.4,4.5,22.5,11.5l30.9-16.7l-40-60.4c-0.7,0.1-1.5,0.2-2.3,0.2
				c-7.5,0-13.5-6-13.5-13.5s6-13.5,13.5-13.5s13.5,6,13.5,13.5c0,3.2-1.1,6.2-3.1,8.6l23.4,35.4l3.3-2.2
				c11.5-10.2,18.8-25.1,18.8-41.7c0-30.8-25-55.9-55.9-55.9S260,520.1,260,551c0,15.7,6.5,29.9,16.9,40
				c-26.1,10.9-44.5,36.7-44.5,66.8c0,39.9,32.5,72.3,72.3,72.3C326.8,730,346.6,720,359.9,704.4z"/>
		</g>
		<g>
			<g>
				<circle class="st2" cx="118.5" cy="304.2" r="19.9"/>
			</g>
			<path class="st2" d="M209.5,336.9l15.2-10.2v-51.1l-86.3,57.1l17.4,32.2c2.2-0.5,4.5-0.8,6.8-0.8c15.4,0,27.8,12.5,27.8,27.8
				s-12.5,27.8-27.8,27.8c-15.4,0-27.9-12.5-27.9-27.8c0-9.2,4.5-17.4,11.5-22.5l-16.7-30.9l-60.4,40c0.1,0.7,0.2,1.5,0.2,2.3
				c0,7.5-6,13.5-13.5,13.5s-13.5-6-13.5-13.5s6-13.5,13.5-13.5c3.2,0,6.2,1.1,8.6,3.1L99.8,347l-2.2-3.3
				C87.4,332.2,72.5,325,55.9,325C25,325,0,350,0,380.9s25,55.9,55.8,55.9c15.7,0,29.9-6.5,40-16.9c10.9,26.1,36.7,44.5,66.8,44.5
				c39.9,0,72.3-32.5,72.3-72.3C235,369.9,225.1,350.2,209.5,336.9z"/>
		</g>
		<g>
			<g>
				<circle class="st2" cx="1594.5" cy="420.9" r="19.9"/>
			</g>
			<path class="st2" d="M1503.5,388.2l-15.2,10.2v51.1l86.3-57.1l-17.4-32.2c-2.2,0.5-4.5,0.8-6.8,0.8c-15.4,0-27.8-12.5-27.8-27.8
				s12.5-27.8,27.8-27.8c15.4,0,27.8,12.5,27.8,27.8c0,9.2-4.5,17.4-11.5,22.5l16.7,30.9l60.4-40c-0.1-0.7-0.2-1.5-0.2-2.3
				c0-7.5,6-13.5,13.5-13.5c7.4,0,13.5,6,13.5,13.5s-6,13.5-13.5,13.5c-3.2,0-6.2-1.1-8.6-3.1l-35.4,23.4l2.2,3.3
				c10.2,11.5,25.1,18.8,41.7,18.8c30.8,0,55.8-25,55.8-55.9s-25-55.9-55.8-55.9c-15.7,0-29.9,6.5-40,16.9
				c-10.9-26.1-36.7-44.5-66.8-44.5c-39.9,0-72.3,32.5-72.3,72.3C1478,355.2,1487.9,374.9,1503.5,388.2z"/>
		</g>
		<rect x="233.3" y="235" class="st3" width="1246.4" height="259.7"/>
	</g>
</g>
<g>
	<g>
		<path class="st4" d="M1452.1,337.4c-10.1,0-18.4,8.2-18.4,18.4s8.2,18.4,18.4,18.4c10.1,0,18.4-8.2,18.4-18.4
			S1462.2,337.4,1452.1,337.4z"/>
		<path class="st5" d="M1422.6,379.7l-30.4,16.4c0.2,1.4,0.3,2.9,0.3,4.4c0,16.2-13.2,29.4-29.4,29.3c-16.2,0-29.4-13.2-29.3-29.4
			c0-16.2,13.2-29.4,29.4-29.3c8.6,0,16.2,3.7,21.6,9.6l28.4-15.2l-37.8-57.2c-0.3,0-0.6,0-0.9,0c-8.7,0-15.8-7.1-15.8-15.8
			c0-8.7,7.1-15.8,15.8-15.8c8.7,0,15.8,7.1,15.8,15.8c0,3-0.9,5.7-2.3,8.1l22.1,33.3c11.8-10,19.3-24.9,19.3-41.5
			c0-30.2-24.5-54.8-54.7-54.9c-30.2,0-54.8,24.5-54.9,54.7c0,16,6.8,30.4,17.8,40.5c-27.3,10.3-46.8,36.7-46.9,67.6
			c-0.1,39.9,32.4,72.4,72.3,72.5c22.1,0,42-9.9,55.3-25.6l10.7,16.1h48.9L1422.6,379.7z"/>
	</g>
	<g>
		<path class="st5" d="M998.3,277.9c-4.2,0-7.8,1.5-10.6,4.3c-2.8,2.9-4.2,6.5-4.2,10.7s1.4,7.8,4.3,10.6c2.8,2.8,6.4,4.3,10.6,4.3
			c4.2,0,7.8-1.4,10.6-4.2c2.9-2.8,4.3-6.4,4.3-10.6s-1.5-7.8-4.4-10.7C1006,279.4,1002.5,277.9,998.3,277.9z"/>
		<path class="st5" d="M548.6,332.2c-8.9,0-17.3,1.9-25,5.8c-6.8,3.4-12.4,8.6-16.6,15.4c-3.7-6.2-8.8-11.2-15.3-14.8
			c-7.5-4.2-16.2-6.4-26.1-6.4c-7.6,0-14.9,1.5-21.7,4.5c-5.2,2.3-9.8,5.6-13.6,9.9v-12.1h-21v114.1h21.2v-64.1
			c0-9.6,3.1-17.4,9.1-23.2c6.1-5.8,13.7-8.7,22.8-8.7c9.5,0,17,2.8,22.1,8.2c5.2,5.5,7.8,13.3,7.8,23.2v64.6h21.1v-64.1
			c0-9.6,3.1-17.4,9.1-23.2c6.1-5.8,13.8-8.7,22.8-8.7c9.5,0,17,2.8,22.2,8.2c5.2,5.5,7.9,13.3,7.9,23.2v64.6h21.1v-70.3
			c0-13.8-4.5-25-13.3-33.4C574.4,336.4,562.8,332.2,548.6,332.2z"/>
		<path class="st5" d="M686.8,332.2c-15.8,0-28.7,5.2-38.3,15.4v-13.1h-21.2v161.2h21.2v-60.2c9.7,10.2,22.5,15.4,38.3,15.4
			c16.1,0,29.7-5.7,40.6-16.9c10.9-11.2,16.4-25.5,16.4-42.4s-5.5-31.1-16.4-42.3C716.5,337.8,702.8,332.2,686.8,332.2z
			 M722.2,391.4c0,11.1-3.5,20.5-10.5,28c-6.9,7.5-16,11.2-27.1,11.2c-10.8,0-19.9-3.7-26.8-11.1c-7-7.4-10.6-16.9-10.6-28.1
			s3.6-20.6,10.6-28s16-11.1,26.8-11.1c10.9,0,20,3.8,26.9,11.2C718.6,370.9,722.2,380.3,722.2,391.4z"/>
		<path class="st5" d="M818.9,332.2c-16.3,0-30,5.6-40.6,16.7s-16,25.4-16,42.6c0,17.4,5.4,31.8,16.1,42.7
			c10.7,10.9,24.7,16.5,41.5,16.5c18.6,0,34.3-6,46.6-17.8l1.2-1.2l-11.6-14.8l-1.5,1.4c-9.7,8.9-21,13.4-33.7,13.4
			c-9.9,0-18.4-3-25.2-8.9c-6.4-5.5-10.3-13.4-11.7-23.3h88l0.2-1.6c0.2-2,0.4-4.3,0.4-6.8c-0.1-17.1-5.2-31.3-15.2-42.3
			C847.3,337.7,834.4,332.2,818.9,332.2z M784.4,381.6c1.6-8.7,5.2-15.9,10.9-21.4c6.1-5.8,13.9-8.8,23.3-8.8
			c8.8,0,16.3,2.9,22.2,8.7c5.5,5.4,8.9,12.6,10.2,21.5L784.4,381.6L784.4,381.6z"/>
		<path class="st5" d="M946.8,332.2c-7,0-13.6,1.6-19.5,4.8c-4.3,2.3-8.1,5.4-11.4,9.2v-11.8h-21v114.1H916v-63.6
			c0-9.8,2.6-17.8,7.8-23.7c5.1-5.8,11.8-8.8,19.9-8.8c6.9,0,13.1,1.4,18.2,4.2l2.1,1.2l5.1-21l-1.4-0.6
			C962.2,333.5,955.1,332.2,946.8,332.2z"/>
		<rect x="987.7" y="334.4" class="st5" width="21.2" height="114.1"/>
		<path class="st5" d="M1115.7,423.2c-6.8,4.9-14.2,7.5-22.1,7.5c-6.1,0-11-1.9-14.6-5.6s-5.4-9.6-5.4-17.3V354h43.4l-11.7-19.5
			h-31.7v-35.1h-21.1v35.1h-24.1V354h24.1v54c0,14,3.5,24.8,10.4,31.9s16.8,10.8,29.4,10.8s23.9-3.8,33.9-11.3l1.4-1l-10.1-16.3
			L1115.7,423.2z"/>
		<polygon class="st5" points="1230.7,334.4 1194.3,398 1152.2,334.4 1127.9,334.4 1183.1,417.7 1138.7,495.5 1162.2,495.5 
			1253.1,336.1 1254.1,334.4 		"/>
		<path class="st5" d="M318.2,281.6h-25.7L224,448.5h23.5l18.4-45.5h78.2l18.5,45.5h24.1l-68.2-166.2L318.2,281.6z M335.5,381.6
			h-60.8l30.4-74.6L335.5,381.6z"/>
	</g>
</g>
</svg>
